<mxfile host="app.diagrams.net" agent="Mozilla/5.0 (Windows NT 10.0; Win64; x64) AppleWebKit/537.36 (KHTML, like Gecko) Chrome/134.0.0.0 Safari/537.36" version="26.3.0" pages="2">
  <diagram name="Modelo_Conceptual" id="D1wddHGctTul5iZEFQTd">
    <mxGraphModel dx="639" dy="1153" grid="0" gridSize="10" guides="1" tooltips="1" connect="1" arrows="1" fold="1" page="0" pageScale="1" pageWidth="827" pageHeight="1169" math="0" shadow="0">
      <root>
        <mxCell id="0" />
        <mxCell id="1" parent="0" />
        <mxCell id="CA4QrtzZhdRamv6jyp4y-31" style="edgeStyle=orthogonalEdgeStyle;rounded=0;orthogonalLoop=1;jettySize=auto;html=1;exitX=1;exitY=0.5;exitDx=0;exitDy=0;fontSize=12;startSize=8;endSize=8;entryX=0;entryY=0.5;entryDx=0;entryDy=0;" edge="1" parent="1" source="CA4QrtzZhdRamv6jyp4y-1" target="CA4QrtzZhdRamv6jyp4y-9">
          <mxGeometry relative="1" as="geometry">
            <Array as="points">
              <mxPoint x="287" y="200" />
              <mxPoint x="287" y="69" />
            </Array>
          </mxGeometry>
        </mxCell>
        <mxCell id="x8j_IPwiLFdPTcWcqeIL-46" style="edgeStyle=orthogonalEdgeStyle;rounded=0;orthogonalLoop=1;jettySize=auto;html=1;entryX=0;entryY=0.5;entryDx=0;entryDy=0;fontSize=12;startSize=8;endSize=8;" edge="1" parent="1" source="CA4QrtzZhdRamv6jyp4y-1" target="CA4QrtzZhdRamv6jyp4y-17">
          <mxGeometry relative="1" as="geometry" />
        </mxCell>
        <mxCell id="x8j_IPwiLFdPTcWcqeIL-47" style="edgeStyle=orthogonalEdgeStyle;rounded=0;orthogonalLoop=1;jettySize=auto;html=1;entryX=0;entryY=0.5;entryDx=0;entryDy=0;fontSize=12;startSize=8;endSize=8;" edge="1" parent="1" source="CA4QrtzZhdRamv6jyp4y-1" target="x8j_IPwiLFdPTcWcqeIL-37">
          <mxGeometry relative="1" as="geometry" />
        </mxCell>
        <mxCell id="x8j_IPwiLFdPTcWcqeIL-48" style="edgeStyle=orthogonalEdgeStyle;rounded=0;orthogonalLoop=1;jettySize=auto;html=1;entryX=0;entryY=0.5;entryDx=0;entryDy=0;fontSize=12;startSize=8;endSize=8;" edge="1" parent="1" source="CA4QrtzZhdRamv6jyp4y-1" target="x8j_IPwiLFdPTcWcqeIL-38">
          <mxGeometry relative="1" as="geometry" />
        </mxCell>
        <mxCell id="x8j_IPwiLFdPTcWcqeIL-49" style="edgeStyle=orthogonalEdgeStyle;rounded=0;orthogonalLoop=1;jettySize=auto;html=1;entryX=0;entryY=0.5;entryDx=0;entryDy=0;fontSize=12;startSize=8;endSize=8;" edge="1" parent="1" source="CA4QrtzZhdRamv6jyp4y-1" target="x8j_IPwiLFdPTcWcqeIL-36">
          <mxGeometry relative="1" as="geometry" />
        </mxCell>
        <mxCell id="CA4QrtzZhdRamv6jyp4y-1" value="Cliente" style="rounded=0;whiteSpace=wrap;html=1;" vertex="1" parent="1">
          <mxGeometry x="75" y="170" width="120" height="60" as="geometry" />
        </mxCell>
        <mxCell id="x8j_IPwiLFdPTcWcqeIL-30" style="edgeStyle=orthogonalEdgeStyle;rounded=0;orthogonalLoop=1;jettySize=auto;html=1;exitX=0.01;exitY=0.97;exitDx=0;exitDy=0;exitPerimeter=0;entryX=0.5;entryY=0;entryDx=0;entryDy=0;fontSize=12;startSize=8;endSize=8;" edge="1" parent="1" source="CA4QrtzZhdRamv6jyp4y-3" target="CA4QrtzZhdRamv6jyp4y-5">
          <mxGeometry relative="1" as="geometry" />
        </mxCell>
        <mxCell id="x8j_IPwiLFdPTcWcqeIL-31" style="edgeStyle=orthogonalEdgeStyle;rounded=0;orthogonalLoop=1;jettySize=auto;html=1;exitX=0.99;exitY=0.97;exitDx=0;exitDy=0;exitPerimeter=0;entryX=0.5;entryY=0;entryDx=0;entryDy=0;fontSize=12;startSize=8;endSize=8;" edge="1" parent="1" source="CA4QrtzZhdRamv6jyp4y-3" target="CA4QrtzZhdRamv6jyp4y-6">
          <mxGeometry relative="1" as="geometry" />
        </mxCell>
        <mxCell id="CA4QrtzZhdRamv6jyp4y-3" value="ID" style="strokeWidth=2;html=1;shape=mxgraph.flowchart.extract_or_measurement;whiteSpace=wrap;" vertex="1" parent="1">
          <mxGeometry x="339" y="236" width="95" height="60" as="geometry" />
        </mxCell>
        <mxCell id="x8j_IPwiLFdPTcWcqeIL-32" style="edgeStyle=orthogonalEdgeStyle;rounded=0;orthogonalLoop=1;jettySize=auto;html=1;entryX=0;entryY=0.5;entryDx=0;entryDy=0;fontSize=12;startSize=8;endSize=8;" edge="1" parent="1" source="CA4QrtzZhdRamv6jyp4y-5" target="CA4QrtzZhdRamv6jyp4y-14">
          <mxGeometry relative="1" as="geometry" />
        </mxCell>
        <mxCell id="x8j_IPwiLFdPTcWcqeIL-33" style="edgeStyle=orthogonalEdgeStyle;rounded=0;orthogonalLoop=1;jettySize=auto;html=1;entryX=0;entryY=0.5;entryDx=0;entryDy=0;fontSize=12;startSize=8;endSize=8;" edge="1" parent="1" source="CA4QrtzZhdRamv6jyp4y-5" target="CA4QrtzZhdRamv6jyp4y-13">
          <mxGeometry relative="1" as="geometry" />
        </mxCell>
        <mxCell id="CA4QrtzZhdRamv6jyp4y-5" value="PN" style="rounded=1;whiteSpace=wrap;html=1;" vertex="1" parent="1">
          <mxGeometry x="228" y="346" width="120" height="60" as="geometry" />
        </mxCell>
        <mxCell id="x8j_IPwiLFdPTcWcqeIL-34" style="edgeStyle=orthogonalEdgeStyle;rounded=0;orthogonalLoop=1;jettySize=auto;html=1;entryX=0;entryY=0.5;entryDx=0;entryDy=0;fontSize=12;startSize=8;endSize=8;" edge="1" parent="1" source="CA4QrtzZhdRamv6jyp4y-6" target="CA4QrtzZhdRamv6jyp4y-11">
          <mxGeometry relative="1" as="geometry" />
        </mxCell>
        <mxCell id="x8j_IPwiLFdPTcWcqeIL-35" style="edgeStyle=orthogonalEdgeStyle;rounded=0;orthogonalLoop=1;jettySize=auto;html=1;exitX=0.5;exitY=1;exitDx=0;exitDy=0;entryX=0;entryY=0.5;entryDx=0;entryDy=0;fontSize=12;startSize=8;endSize=8;" edge="1" parent="1" source="CA4QrtzZhdRamv6jyp4y-6" target="CA4QrtzZhdRamv6jyp4y-12">
          <mxGeometry relative="1" as="geometry" />
        </mxCell>
        <mxCell id="CA4QrtzZhdRamv6jyp4y-6" value="PJ" style="rounded=1;whiteSpace=wrap;html=1;" vertex="1" parent="1">
          <mxGeometry x="398" y="344" width="120" height="60" as="geometry" />
        </mxCell>
        <mxCell id="CA4QrtzZhdRamv6jyp4y-9" value="&lt;u&gt;CÃ³digo Cliente&lt;/u&gt;" style="ellipse;whiteSpace=wrap;html=1;align=center;newEdgeStyle={&quot;edgeStyle&quot;:&quot;entityRelationEdgeStyle&quot;,&quot;startArrow&quot;:&quot;none&quot;,&quot;endArrow&quot;:&quot;none&quot;,&quot;segment&quot;:10,&quot;curved&quot;:1,&quot;sourcePerimeterSpacing&quot;:0,&quot;targetPerimeterSpacing&quot;:0};treeFolding=1;treeMoving=1;" vertex="1" parent="1">
          <mxGeometry x="320" y="49" width="100" height="40" as="geometry" />
        </mxCell>
        <mxCell id="CA4QrtzZhdRamv6jyp4y-10" value="(1,1)" style="text;strokeColor=none;fillColor=none;html=1;align=center;verticalAlign=middle;whiteSpace=wrap;rounded=0;fontSize=16;" vertex="1" parent="1">
          <mxGeometry x="139" y="140" width="60" height="30" as="geometry" />
        </mxCell>
        <mxCell id="CA4QrtzZhdRamv6jyp4y-11" value="RUES" style="ellipse;whiteSpace=wrap;html=1;align=center;newEdgeStyle={&quot;edgeStyle&quot;:&quot;entityRelationEdgeStyle&quot;,&quot;startArrow&quot;:&quot;none&quot;,&quot;endArrow&quot;:&quot;none&quot;,&quot;segment&quot;:10,&quot;curved&quot;:1,&quot;sourcePerimeterSpacing&quot;:0,&quot;targetPerimeterSpacing&quot;:0};treeFolding=1;treeMoving=1;" vertex="1" parent="1">
          <mxGeometry x="477" y="513" width="100" height="40" as="geometry" />
        </mxCell>
        <mxCell id="CA4QrtzZhdRamv6jyp4y-12" value="NIT" style="ellipse;whiteSpace=wrap;html=1;align=center;newEdgeStyle={&quot;edgeStyle&quot;:&quot;entityRelationEdgeStyle&quot;,&quot;startArrow&quot;:&quot;none&quot;,&quot;endArrow&quot;:&quot;none&quot;,&quot;segment&quot;:10,&quot;curved&quot;:1,&quot;sourcePerimeterSpacing&quot;:0,&quot;targetPerimeterSpacing&quot;:0};treeFolding=1;treeMoving=1;" vertex="1" parent="1">
          <mxGeometry x="479" y="442" width="100" height="40" as="geometry" />
        </mxCell>
        <mxCell id="CA4QrtzZhdRamv6jyp4y-13" value="RUT" style="ellipse;whiteSpace=wrap;html=1;align=center;newEdgeStyle={&quot;edgeStyle&quot;:&quot;entityRelationEdgeStyle&quot;,&quot;startArrow&quot;:&quot;none&quot;,&quot;endArrow&quot;:&quot;none&quot;,&quot;segment&quot;:10,&quot;curved&quot;:1,&quot;sourcePerimeterSpacing&quot;:0,&quot;targetPerimeterSpacing&quot;:0};treeFolding=1;treeMoving=1;" vertex="1" parent="1">
          <mxGeometry x="307" y="516" width="100" height="40" as="geometry" />
        </mxCell>
        <mxCell id="CA4QrtzZhdRamv6jyp4y-14" value="DNI" style="ellipse;whiteSpace=wrap;html=1;align=center;newEdgeStyle={&quot;edgeStyle&quot;:&quot;entityRelationEdgeStyle&quot;,&quot;startArrow&quot;:&quot;none&quot;,&quot;endArrow&quot;:&quot;none&quot;,&quot;segment&quot;:10,&quot;curved&quot;:1,&quot;sourcePerimeterSpacing&quot;:0,&quot;targetPerimeterSpacing&quot;:0};treeFolding=1;treeMoving=1;" vertex="1" parent="1">
          <mxGeometry x="309" y="442" width="100" height="40" as="geometry" />
        </mxCell>
        <mxCell id="CA4QrtzZhdRamv6jyp4y-17" value="Nombre" style="ellipse;whiteSpace=wrap;html=1;align=center;newEdgeStyle={&quot;edgeStyle&quot;:&quot;entityRelationEdgeStyle&quot;,&quot;startArrow&quot;:&quot;none&quot;,&quot;endArrow&quot;:&quot;none&quot;,&quot;segment&quot;:10,&quot;curved&quot;:1,&quot;sourcePerimeterSpacing&quot;:0,&quot;targetPerimeterSpacing&quot;:0};treeFolding=1;treeMoving=1;" vertex="1" parent="1">
          <mxGeometry x="156" y="542" width="100" height="40" as="geometry" />
        </mxCell>
        <mxCell id="CA4QrtzZhdRamv6jyp4y-36" style="edgeStyle=none;curved=1;rounded=0;orthogonalLoop=1;jettySize=auto;html=1;entryX=0;entryY=0.5;entryDx=0;entryDy=0;fontSize=12;startSize=8;endSize=8;" edge="1" parent="1" source="CA4QrtzZhdRamv6jyp4y-19" target="CA4QrtzZhdRamv6jyp4y-20">
          <mxGeometry relative="1" as="geometry" />
        </mxCell>
        <mxCell id="CA4QrtzZhdRamv6jyp4y-19" value="Realiza" style="html=1;whiteSpace=wrap;aspect=fixed;shape=isoRectangle;" vertex="1" parent="1">
          <mxGeometry x="284" y="-224" width="150" height="90" as="geometry" />
        </mxCell>
        <mxCell id="CA4QrtzZhdRamv6jyp4y-48" style="edgeStyle=orthogonalEdgeStyle;rounded=0;orthogonalLoop=1;jettySize=auto;html=1;exitX=1;exitY=0.5;exitDx=0;exitDy=0;entryX=0;entryY=0.5;entryDx=0;entryDy=0;fontSize=12;startSize=8;endSize=8;" edge="1" parent="1" source="CA4QrtzZhdRamv6jyp4y-20" target="CA4QrtzZhdRamv6jyp4y-46">
          <mxGeometry relative="1" as="geometry" />
        </mxCell>
        <mxCell id="CA4QrtzZhdRamv6jyp4y-49" style="edgeStyle=orthogonalEdgeStyle;rounded=0;orthogonalLoop=1;jettySize=auto;html=1;exitX=1;exitY=0.5;exitDx=0;exitDy=0;entryX=0;entryY=0.5;entryDx=0;entryDy=0;fontSize=12;startSize=8;endSize=8;" edge="1" parent="1" source="CA4QrtzZhdRamv6jyp4y-20" target="CA4QrtzZhdRamv6jyp4y-45">
          <mxGeometry relative="1" as="geometry" />
        </mxCell>
        <mxCell id="CA4QrtzZhdRamv6jyp4y-50" style="edgeStyle=orthogonalEdgeStyle;rounded=0;orthogonalLoop=1;jettySize=auto;html=1;entryX=0;entryY=0.5;entryDx=0;entryDy=0;fontSize=12;startSize=8;endSize=8;exitX=1;exitY=0.5;exitDx=0;exitDy=0;" edge="1" parent="1" source="CA4QrtzZhdRamv6jyp4y-20" target="CA4QrtzZhdRamv6jyp4y-44">
          <mxGeometry relative="1" as="geometry" />
        </mxCell>
        <mxCell id="CA4QrtzZhdRamv6jyp4y-51" style="edgeStyle=orthogonalEdgeStyle;rounded=0;orthogonalLoop=1;jettySize=auto;html=1;entryX=0;entryY=0.5;entryDx=0;entryDy=0;fontSize=12;startSize=8;endSize=8;" edge="1" parent="1" source="CA4QrtzZhdRamv6jyp4y-20" target="CA4QrtzZhdRamv6jyp4y-47">
          <mxGeometry relative="1" as="geometry" />
        </mxCell>
        <mxCell id="x8j_IPwiLFdPTcWcqeIL-2" style="edgeStyle=none;curved=1;rounded=0;orthogonalLoop=1;jettySize=auto;html=1;entryX=0.5;entryY=0;entryDx=0;entryDy=0;fontSize=12;startSize=8;endSize=8;" edge="1" parent="1" source="CA4QrtzZhdRamv6jyp4y-20" target="x8j_IPwiLFdPTcWcqeIL-1">
          <mxGeometry relative="1" as="geometry" />
        </mxCell>
        <mxCell id="CA4QrtzZhdRamv6jyp4y-20" value="Pedido" style="shape=ext;margin=3;double=1;whiteSpace=wrap;html=1;align=center;" vertex="1" parent="1">
          <mxGeometry x="638" y="-199" width="100" height="40" as="geometry" />
        </mxCell>
        <mxCell id="CA4QrtzZhdRamv6jyp4y-21" value="(0,N)" style="text;strokeColor=none;fillColor=none;html=1;align=center;verticalAlign=middle;whiteSpace=wrap;rounded=0;fontSize=16;" vertex="1" parent="1">
          <mxGeometry x="506" y="-218" width="60" height="30" as="geometry" />
        </mxCell>
        <mxCell id="CA4QrtzZhdRamv6jyp4y-32" style="edgeStyle=orthogonalEdgeStyle;rounded=0;orthogonalLoop=1;jettySize=auto;html=1;exitX=1;exitY=0.5;exitDx=0;exitDy=0;entryX=0.5;entryY=0;entryDx=0;entryDy=0;entryPerimeter=0;fontSize=12;startSize=8;endSize=8;" edge="1" parent="1" source="CA4QrtzZhdRamv6jyp4y-1" target="CA4QrtzZhdRamv6jyp4y-3">
          <mxGeometry relative="1" as="geometry" />
        </mxCell>
        <mxCell id="CA4QrtzZhdRamv6jyp4y-33" style="edgeStyle=orthogonalEdgeStyle;rounded=0;orthogonalLoop=1;jettySize=auto;html=1;exitX=0.5;exitY=0;exitDx=0;exitDy=0;entryX=0.02;entryY=0.478;entryDx=0;entryDy=0;entryPerimeter=0;fontSize=12;startSize=8;endSize=8;" edge="1" parent="1" source="CA4QrtzZhdRamv6jyp4y-1" target="CA4QrtzZhdRamv6jyp4y-19">
          <mxGeometry relative="1" as="geometry">
            <Array as="points">
              <mxPoint x="200" y="-181" />
              <mxPoint x="282" y="-181" />
            </Array>
          </mxGeometry>
        </mxCell>
        <mxCell id="CA4QrtzZhdRamv6jyp4y-37" value="Titulo" style="ellipse;whiteSpace=wrap;html=1;align=center;newEdgeStyle={&quot;edgeStyle&quot;:&quot;entityRelationEdgeStyle&quot;,&quot;startArrow&quot;:&quot;none&quot;,&quot;endArrow&quot;:&quot;none&quot;,&quot;segment&quot;:10,&quot;curved&quot;:1,&quot;sourcePerimeterSpacing&quot;:0,&quot;targetPerimeterSpacing&quot;:0};treeFolding=1;treeMoving=1;" vertex="1" parent="1">
          <mxGeometry x="434" y="-129" width="100" height="40" as="geometry" />
        </mxCell>
        <mxCell id="CA4QrtzZhdRamv6jyp4y-38" value="CategorÃ­a" style="ellipse;whiteSpace=wrap;html=1;align=center;newEdgeStyle={&quot;edgeStyle&quot;:&quot;entityRelationEdgeStyle&quot;,&quot;startArrow&quot;:&quot;none&quot;,&quot;endArrow&quot;:&quot;none&quot;,&quot;segment&quot;:10,&quot;curved&quot;:1,&quot;sourcePerimeterSpacing&quot;:0,&quot;targetPerimeterSpacing&quot;:0};treeFolding=1;treeMoving=1;" vertex="1" parent="1">
          <mxGeometry x="434" y="-76" width="100" height="40" as="geometry" />
        </mxCell>
        <mxCell id="CA4QrtzZhdRamv6jyp4y-39" value="Valor" style="ellipse;whiteSpace=wrap;html=1;align=center;newEdgeStyle={&quot;edgeStyle&quot;:&quot;entityRelationEdgeStyle&quot;,&quot;startArrow&quot;:&quot;none&quot;,&quot;endArrow&quot;:&quot;none&quot;,&quot;segment&quot;:10,&quot;curved&quot;:1,&quot;sourcePerimeterSpacing&quot;:0,&quot;targetPerimeterSpacing&quot;:0};treeFolding=1;treeMoving=1;" vertex="1" parent="1">
          <mxGeometry x="434" y="148" width="100" height="40" as="geometry" />
        </mxCell>
        <mxCell id="CA4QrtzZhdRamv6jyp4y-40" value="Editorial" style="ellipse;whiteSpace=wrap;html=1;align=center;newEdgeStyle={&quot;edgeStyle&quot;:&quot;entityRelationEdgeStyle&quot;,&quot;startArrow&quot;:&quot;none&quot;,&quot;endArrow&quot;:&quot;none&quot;,&quot;segment&quot;:10,&quot;curved&quot;:1,&quot;sourcePerimeterSpacing&quot;:0,&quot;targetPerimeterSpacing&quot;:0};treeFolding=1;treeMoving=1;" vertex="1" parent="1">
          <mxGeometry x="434" y="92" width="100" height="40" as="geometry" />
        </mxCell>
        <mxCell id="CA4QrtzZhdRamv6jyp4y-41" value="ISBN" style="ellipse;whiteSpace=wrap;html=1;align=center;newEdgeStyle={&quot;edgeStyle&quot;:&quot;entityRelationEdgeStyle&quot;,&quot;startArrow&quot;:&quot;none&quot;,&quot;endArrow&quot;:&quot;none&quot;,&quot;segment&quot;:10,&quot;curved&quot;:1,&quot;sourcePerimeterSpacing&quot;:0,&quot;targetPerimeterSpacing&quot;:0};treeFolding=1;treeMoving=1;" vertex="1" parent="1">
          <mxGeometry x="434" y="-21" width="100" height="40" as="geometry" />
        </mxCell>
        <mxCell id="CA4QrtzZhdRamv6jyp4y-42" value="AÃ±o_publicaciÃ³n" style="ellipse;whiteSpace=wrap;html=1;align=center;newEdgeStyle={&quot;edgeStyle&quot;:&quot;entityRelationEdgeStyle&quot;,&quot;startArrow&quot;:&quot;none&quot;,&quot;endArrow&quot;:&quot;none&quot;,&quot;segment&quot;:10,&quot;curved&quot;:1,&quot;sourcePerimeterSpacing&quot;:0,&quot;targetPerimeterSpacing&quot;:0};treeFolding=1;treeMoving=1;" vertex="1" parent="1">
          <mxGeometry x="434" y="35" width="100" height="40" as="geometry" />
        </mxCell>
        <mxCell id="CA4QrtzZhdRamv6jyp4y-43" value="Autor / a" style="ellipse;whiteSpace=wrap;html=1;align=center;newEdgeStyle={&quot;edgeStyle&quot;:&quot;entityRelationEdgeStyle&quot;,&quot;startArrow&quot;:&quot;none&quot;,&quot;endArrow&quot;:&quot;none&quot;,&quot;segment&quot;:10,&quot;curved&quot;:1,&quot;sourcePerimeterSpacing&quot;:0,&quot;targetPerimeterSpacing&quot;:0};treeFolding=1;treeMoving=1;" vertex="1" parent="1">
          <mxGeometry x="434" y="206" width="100" height="40" as="geometry" />
        </mxCell>
        <mxCell id="CA4QrtzZhdRamv6jyp4y-44" value="&lt;u&gt;CÃ³digo Cliente&lt;/u&gt;" style="ellipse;whiteSpace=wrap;html=1;align=center;newEdgeStyle={&quot;edgeStyle&quot;:&quot;entityRelationEdgeStyle&quot;,&quot;startArrow&quot;:&quot;none&quot;,&quot;endArrow&quot;:&quot;none&quot;,&quot;segment&quot;:10,&quot;curved&quot;:1,&quot;sourcePerimeterSpacing&quot;:0,&quot;targetPerimeterSpacing&quot;:0};treeFolding=1;treeMoving=1;" vertex="1" parent="1">
          <mxGeometry x="791" y="-306" width="100" height="40" as="geometry" />
        </mxCell>
        <mxCell id="CA4QrtzZhdRamv6jyp4y-45" value="&lt;u&gt;CÃ³digo Pedido&lt;/u&gt;" style="ellipse;whiteSpace=wrap;html=1;align=center;newEdgeStyle={&quot;edgeStyle&quot;:&quot;entityRelationEdgeStyle&quot;,&quot;startArrow&quot;:&quot;none&quot;,&quot;endArrow&quot;:&quot;none&quot;,&quot;segment&quot;:10,&quot;curved&quot;:1,&quot;sourcePerimeterSpacing&quot;:0,&quot;targetPerimeterSpacing&quot;:0};treeFolding=1;treeMoving=1;" vertex="1" parent="1">
          <mxGeometry x="791" y="-258" width="100" height="40" as="geometry" />
        </mxCell>
        <mxCell id="CA4QrtzZhdRamv6jyp4y-46" value="Fecha" style="ellipse;whiteSpace=wrap;html=1;align=center;newEdgeStyle={&quot;edgeStyle&quot;:&quot;entityRelationEdgeStyle&quot;,&quot;startArrow&quot;:&quot;none&quot;,&quot;endArrow&quot;:&quot;none&quot;,&quot;segment&quot;:10,&quot;curved&quot;:1,&quot;sourcePerimeterSpacing&quot;:0,&quot;targetPerimeterSpacing&quot;:0};treeFolding=1;treeMoving=1;" vertex="1" parent="1">
          <mxGeometry x="791" y="-210" width="100" height="40" as="geometry" />
        </mxCell>
        <mxCell id="CA4QrtzZhdRamv6jyp4y-47" value="Valor" style="ellipse;whiteSpace=wrap;html=1;align=center;newEdgeStyle={&quot;edgeStyle&quot;:&quot;entityRelationEdgeStyle&quot;,&quot;startArrow&quot;:&quot;none&quot;,&quot;endArrow&quot;:&quot;none&quot;,&quot;segment&quot;:10,&quot;curved&quot;:1,&quot;sourcePerimeterSpacing&quot;:0,&quot;targetPerimeterSpacing&quot;:0};treeFolding=1;treeMoving=1;" vertex="1" parent="1">
          <mxGeometry x="793" y="-159" width="100" height="40" as="geometry" />
        </mxCell>
        <mxCell id="x8j_IPwiLFdPTcWcqeIL-19" style="edgeStyle=orthogonalEdgeStyle;rounded=0;orthogonalLoop=1;jettySize=auto;html=1;entryX=0;entryY=0.5;entryDx=0;entryDy=0;fontSize=12;startSize=8;endSize=8;" edge="1" parent="1" source="x8j_IPwiLFdPTcWcqeIL-1" target="x8j_IPwiLFdPTcWcqeIL-8">
          <mxGeometry relative="1" as="geometry" />
        </mxCell>
        <mxCell id="x8j_IPwiLFdPTcWcqeIL-21" style="edgeStyle=none;curved=1;rounded=0;orthogonalLoop=1;jettySize=auto;html=1;exitX=0.5;exitY=1;exitDx=0;exitDy=0;fontSize=12;startSize=8;endSize=8;" edge="1" parent="1" source="x8j_IPwiLFdPTcWcqeIL-1" target="x8j_IPwiLFdPTcWcqeIL-20">
          <mxGeometry relative="1" as="geometry" />
        </mxCell>
        <mxCell id="x8j_IPwiLFdPTcWcqeIL-1" value="Contiene" style="shape=associativeEntity;whiteSpace=wrap;html=1;align=center;" vertex="1" parent="1">
          <mxGeometry x="618" y="-17" width="140" height="60" as="geometry" />
        </mxCell>
        <mxCell id="x8j_IPwiLFdPTcWcqeIL-3" value="(1,N)" style="text;strokeColor=none;fillColor=none;html=1;align=center;verticalAlign=middle;whiteSpace=wrap;rounded=0;fontSize=16;" vertex="1" parent="1">
          <mxGeometry x="691" y="-53" width="60" height="30" as="geometry" />
        </mxCell>
        <mxCell id="x8j_IPwiLFdPTcWcqeIL-4" value="(1,1)" style="text;strokeColor=none;fillColor=none;html=1;align=center;verticalAlign=middle;whiteSpace=wrap;rounded=0;fontSize=16;" vertex="1" parent="1">
          <mxGeometry x="691" y="-154" width="60" height="30" as="geometry" />
        </mxCell>
        <mxCell id="x8j_IPwiLFdPTcWcqeIL-6" value="Items" style="text;html=1;align=center;verticalAlign=middle;whiteSpace=wrap;rounded=0;" vertex="1" parent="1">
          <mxGeometry x="613" y="-45" width="60" height="30" as="geometry" />
        </mxCell>
        <mxCell id="x8j_IPwiLFdPTcWcqeIL-7" value="&lt;u&gt;CÃ³digo Pedido&lt;/u&gt;" style="ellipse;whiteSpace=wrap;html=1;align=center;newEdgeStyle={&quot;edgeStyle&quot;:&quot;entityRelationEdgeStyle&quot;,&quot;startArrow&quot;:&quot;none&quot;,&quot;endArrow&quot;:&quot;none&quot;,&quot;segment&quot;:10,&quot;curved&quot;:1,&quot;sourcePerimeterSpacing&quot;:0,&quot;targetPerimeterSpacing&quot;:0};treeFolding=1;treeMoving=1;" vertex="1" parent="1">
          <mxGeometry x="818" y="-80.5" width="100" height="40" as="geometry" />
        </mxCell>
        <mxCell id="x8j_IPwiLFdPTcWcqeIL-8" value="&lt;u&gt;CÃ³digo Libro&lt;/u&gt;" style="ellipse;whiteSpace=wrap;html=1;align=center;newEdgeStyle={&quot;edgeStyle&quot;:&quot;entityRelationEdgeStyle&quot;,&quot;startArrow&quot;:&quot;none&quot;,&quot;endArrow&quot;:&quot;none&quot;,&quot;segment&quot;:10,&quot;curved&quot;:1,&quot;sourcePerimeterSpacing&quot;:0,&quot;targetPerimeterSpacing&quot;:0};treeFolding=1;treeMoving=1;" vertex="1" parent="1">
          <mxGeometry x="818" y="-32.5" width="100" height="40" as="geometry" />
        </mxCell>
        <mxCell id="x8j_IPwiLFdPTcWcqeIL-9" value="Cantidad" style="ellipse;whiteSpace=wrap;html=1;align=center;newEdgeStyle={&quot;edgeStyle&quot;:&quot;entityRelationEdgeStyle&quot;,&quot;startArrow&quot;:&quot;none&quot;,&quot;endArrow&quot;:&quot;none&quot;,&quot;segment&quot;:10,&quot;curved&quot;:1,&quot;sourcePerimeterSpacing&quot;:0,&quot;targetPerimeterSpacing&quot;:0};treeFolding=1;treeMoving=1;" vertex="1" parent="1">
          <mxGeometry x="818" y="15.5" width="100" height="40" as="geometry" />
        </mxCell>
        <mxCell id="x8j_IPwiLFdPTcWcqeIL-10" value="Valor" style="ellipse;whiteSpace=wrap;html=1;align=center;newEdgeStyle={&quot;edgeStyle&quot;:&quot;entityRelationEdgeStyle&quot;,&quot;startArrow&quot;:&quot;none&quot;,&quot;endArrow&quot;:&quot;none&quot;,&quot;segment&quot;:10,&quot;curved&quot;:1,&quot;sourcePerimeterSpacing&quot;:0,&quot;targetPerimeterSpacing&quot;:0};treeFolding=1;treeMoving=1;" vertex="1" parent="1">
          <mxGeometry x="820" y="66.5" width="100" height="40" as="geometry" />
        </mxCell>
        <mxCell id="x8j_IPwiLFdPTcWcqeIL-15" style="edgeStyle=orthogonalEdgeStyle;rounded=0;orthogonalLoop=1;jettySize=auto;html=1;exitX=1;exitY=0.5;exitDx=0;exitDy=0;entryX=0;entryY=0.5;entryDx=0;entryDy=0;fontSize=12;startSize=8;endSize=8;" edge="1" parent="1" source="x8j_IPwiLFdPTcWcqeIL-1" target="x8j_IPwiLFdPTcWcqeIL-9">
          <mxGeometry relative="1" as="geometry">
            <mxPoint x="758" y="11" as="sourcePoint" />
            <mxPoint x="811" as="targetPoint" />
          </mxGeometry>
        </mxCell>
        <mxCell id="x8j_IPwiLFdPTcWcqeIL-16" style="edgeStyle=orthogonalEdgeStyle;rounded=0;orthogonalLoop=1;jettySize=auto;html=1;exitX=1;exitY=0.5;exitDx=0;exitDy=0;entryX=-0.01;entryY=0.363;entryDx=0;entryDy=0;fontSize=12;startSize=8;endSize=8;entryPerimeter=0;" edge="1" parent="1" target="x8j_IPwiLFdPTcWcqeIL-7">
          <mxGeometry relative="1" as="geometry">
            <mxPoint x="758" y="11" as="sourcePoint" />
            <mxPoint x="811" y="-48" as="targetPoint" />
            <Array as="points">
              <mxPoint x="758" y="13" />
              <mxPoint x="788" y="13" />
              <mxPoint x="788" y="-66" />
            </Array>
          </mxGeometry>
        </mxCell>
        <mxCell id="x8j_IPwiLFdPTcWcqeIL-18" style="edgeStyle=orthogonalEdgeStyle;rounded=0;orthogonalLoop=1;jettySize=auto;html=1;entryX=0;entryY=0.5;entryDx=0;entryDy=0;fontSize=12;startSize=8;endSize=8;exitX=1;exitY=0.5;exitDx=0;exitDy=0;" edge="1" parent="1" source="x8j_IPwiLFdPTcWcqeIL-1" target="x8j_IPwiLFdPTcWcqeIL-10">
          <mxGeometry relative="1" as="geometry">
            <mxPoint x="758" y="11" as="sourcePoint" />
            <mxPoint x="813" y="51" as="targetPoint" />
            <Array as="points">
              <mxPoint x="788" y="13" />
              <mxPoint x="788" y="87" />
            </Array>
          </mxGeometry>
        </mxCell>
        <mxCell id="x8j_IPwiLFdPTcWcqeIL-22" style="edgeStyle=none;curved=1;rounded=0;orthogonalLoop=1;jettySize=auto;html=1;exitX=1;exitY=0.5;exitDx=0;exitDy=0;fontSize=12;startSize=8;endSize=8;" edge="1" parent="1" source="x8j_IPwiLFdPTcWcqeIL-20">
          <mxGeometry relative="1" as="geometry">
            <mxPoint x="801.4000000000001" y="230" as="targetPoint" />
          </mxGeometry>
        </mxCell>
        <mxCell id="x8j_IPwiLFdPTcWcqeIL-53" style="edgeStyle=orthogonalEdgeStyle;rounded=0;orthogonalLoop=1;jettySize=auto;html=1;entryX=1;entryY=0.5;entryDx=0;entryDy=0;fontSize=12;startSize=8;endSize=8;exitX=0;exitY=0.5;exitDx=0;exitDy=0;" edge="1" parent="1" source="x8j_IPwiLFdPTcWcqeIL-20" target="CA4QrtzZhdRamv6jyp4y-37">
          <mxGeometry relative="1" as="geometry" />
        </mxCell>
        <mxCell id="x8j_IPwiLFdPTcWcqeIL-54" value="" style="edgeStyle=orthogonalEdgeStyle;rounded=0;orthogonalLoop=1;jettySize=auto;html=1;fontSize=12;startSize=8;endSize=8;" edge="1" parent="1" source="x8j_IPwiLFdPTcWcqeIL-20" target="CA4QrtzZhdRamv6jyp4y-43">
          <mxGeometry relative="1" as="geometry" />
        </mxCell>
        <mxCell id="x8j_IPwiLFdPTcWcqeIL-55" style="edgeStyle=orthogonalEdgeStyle;rounded=0;orthogonalLoop=1;jettySize=auto;html=1;exitX=0;exitY=0.5;exitDx=0;exitDy=0;entryX=1;entryY=0.5;entryDx=0;entryDy=0;fontSize=12;startSize=8;endSize=8;" edge="1" parent="1" source="x8j_IPwiLFdPTcWcqeIL-20" target="CA4QrtzZhdRamv6jyp4y-38">
          <mxGeometry relative="1" as="geometry" />
        </mxCell>
        <mxCell id="x8j_IPwiLFdPTcWcqeIL-56" style="edgeStyle=orthogonalEdgeStyle;rounded=0;orthogonalLoop=1;jettySize=auto;html=1;entryX=1;entryY=0.5;entryDx=0;entryDy=0;fontSize=12;startSize=8;endSize=8;exitX=0;exitY=0.5;exitDx=0;exitDy=0;" edge="1" parent="1" source="x8j_IPwiLFdPTcWcqeIL-20" target="CA4QrtzZhdRamv6jyp4y-41">
          <mxGeometry relative="1" as="geometry" />
        </mxCell>
        <mxCell id="x8j_IPwiLFdPTcWcqeIL-57" style="edgeStyle=orthogonalEdgeStyle;rounded=0;orthogonalLoop=1;jettySize=auto;html=1;entryX=1;entryY=0.5;entryDx=0;entryDy=0;fontSize=12;startSize=8;endSize=8;exitX=0;exitY=0.5;exitDx=0;exitDy=0;" edge="1" parent="1" source="x8j_IPwiLFdPTcWcqeIL-20" target="CA4QrtzZhdRamv6jyp4y-42">
          <mxGeometry relative="1" as="geometry" />
        </mxCell>
        <mxCell id="x8j_IPwiLFdPTcWcqeIL-58" style="edgeStyle=orthogonalEdgeStyle;rounded=0;orthogonalLoop=1;jettySize=auto;html=1;entryX=1;entryY=0.5;entryDx=0;entryDy=0;fontSize=12;startSize=8;endSize=8;exitX=0;exitY=0.5;exitDx=0;exitDy=0;" edge="1" parent="1" source="x8j_IPwiLFdPTcWcqeIL-20" target="CA4QrtzZhdRamv6jyp4y-40">
          <mxGeometry relative="1" as="geometry" />
        </mxCell>
        <mxCell id="x8j_IPwiLFdPTcWcqeIL-59" style="edgeStyle=orthogonalEdgeStyle;rounded=0;orthogonalLoop=1;jettySize=auto;html=1;entryX=1;entryY=0.5;entryDx=0;entryDy=0;fontSize=12;startSize=8;endSize=8;exitX=0;exitY=0.5;exitDx=0;exitDy=0;" edge="1" parent="1" source="x8j_IPwiLFdPTcWcqeIL-20" target="CA4QrtzZhdRamv6jyp4y-39">
          <mxGeometry relative="1" as="geometry" />
        </mxCell>
        <mxCell id="x8j_IPwiLFdPTcWcqeIL-64" style="edgeStyle=orthogonalEdgeStyle;rounded=0;orthogonalLoop=1;jettySize=auto;html=1;exitX=0;exitY=0.5;exitDx=0;exitDy=0;entryX=1;entryY=0.5;entryDx=0;entryDy=0;fontSize=12;startSize=8;endSize=8;" edge="1" parent="1" source="x8j_IPwiLFdPTcWcqeIL-20" target="x8j_IPwiLFdPTcWcqeIL-62">
          <mxGeometry relative="1" as="geometry" />
        </mxCell>
        <mxCell id="x8j_IPwiLFdPTcWcqeIL-65" style="edgeStyle=orthogonalEdgeStyle;rounded=0;orthogonalLoop=1;jettySize=auto;html=1;entryX=0.5;entryY=0;entryDx=0;entryDy=0;fontSize=12;startSize=8;endSize=8;exitX=0;exitY=0.5;exitDx=0;exitDy=0;" edge="1" parent="1" source="x8j_IPwiLFdPTcWcqeIL-20" target="x8j_IPwiLFdPTcWcqeIL-63">
          <mxGeometry relative="1" as="geometry">
            <Array as="points">
              <mxPoint x="605" y="230" />
              <mxPoint x="605" y="298" />
              <mxPoint x="572" y="298" />
            </Array>
          </mxGeometry>
        </mxCell>
        <mxCell id="x8j_IPwiLFdPTcWcqeIL-20" value="Libro" style="shape=ext;margin=3;double=1;whiteSpace=wrap;html=1;align=center;" vertex="1" parent="1">
          <mxGeometry x="638" y="210" width="100" height="40" as="geometry" />
        </mxCell>
        <mxCell id="x8j_IPwiLFdPTcWcqeIL-29" style="edgeStyle=none;curved=1;rounded=0;orthogonalLoop=1;jettySize=auto;html=1;entryX=0;entryY=0.5;entryDx=0;entryDy=0;fontSize=12;startSize=8;endSize=8;" edge="1" parent="1" target="x8j_IPwiLFdPTcWcqeIL-28">
          <mxGeometry relative="1" as="geometry">
            <mxPoint x="939" y="230" as="sourcePoint" />
          </mxGeometry>
        </mxCell>
        <mxCell id="x8j_IPwiLFdPTcWcqeIL-23" value="Existe" style="html=1;whiteSpace=wrap;aspect=fixed;shape=isoRectangle;" vertex="1" parent="1">
          <mxGeometry x="801" y="185" width="150" height="90" as="geometry" />
        </mxCell>
        <mxCell id="x8j_IPwiLFdPTcWcqeIL-24" value="(1,N)" style="text;strokeColor=none;fillColor=none;html=1;align=center;verticalAlign=middle;whiteSpace=wrap;rounded=0;fontSize=16;" vertex="1" parent="1">
          <mxGeometry x="691" y="49" width="60" height="30" as="geometry" />
        </mxCell>
        <mxCell id="x8j_IPwiLFdPTcWcqeIL-25" value="(1,1)" style="text;strokeColor=none;fillColor=none;html=1;align=center;verticalAlign=middle;whiteSpace=wrap;rounded=0;fontSize=16;" vertex="1" parent="1">
          <mxGeometry x="687" y="176" width="60" height="30" as="geometry" />
        </mxCell>
        <mxCell id="x8j_IPwiLFdPTcWcqeIL-26" value="(1,N)" style="text;strokeColor=none;fillColor=none;html=1;align=center;verticalAlign=middle;whiteSpace=wrap;rounded=0;fontSize=16;" vertex="1" parent="1">
          <mxGeometry x="738" y="200" width="60" height="30" as="geometry" />
        </mxCell>
        <mxCell id="x8j_IPwiLFdPTcWcqeIL-27" value="(1,N)" style="text;strokeColor=none;fillColor=none;html=1;align=center;verticalAlign=middle;whiteSpace=wrap;rounded=0;fontSize=16;" vertex="1" parent="1">
          <mxGeometry x="691" y="260" width="60" height="30" as="geometry" />
        </mxCell>
        <mxCell id="x8j_IPwiLFdPTcWcqeIL-72" style="edgeStyle=orthogonalEdgeStyle;rounded=0;orthogonalLoop=1;jettySize=auto;html=1;exitX=0.5;exitY=1;exitDx=0;exitDy=0;entryX=0;entryY=0.5;entryDx=0;entryDy=0;fontSize=12;startSize=8;endSize=8;" edge="1" parent="1" source="x8j_IPwiLFdPTcWcqeIL-28" target="x8j_IPwiLFdPTcWcqeIL-69">
          <mxGeometry relative="1" as="geometry" />
        </mxCell>
        <mxCell id="x8j_IPwiLFdPTcWcqeIL-73" style="edgeStyle=orthogonalEdgeStyle;rounded=0;orthogonalLoop=1;jettySize=auto;html=1;entryX=0;entryY=0.5;entryDx=0;entryDy=0;fontSize=12;startSize=8;endSize=8;" edge="1" parent="1" source="x8j_IPwiLFdPTcWcqeIL-28" target="x8j_IPwiLFdPTcWcqeIL-70">
          <mxGeometry relative="1" as="geometry" />
        </mxCell>
        <mxCell id="x8j_IPwiLFdPTcWcqeIL-74" style="edgeStyle=orthogonalEdgeStyle;rounded=0;orthogonalLoop=1;jettySize=auto;html=1;entryX=0;entryY=0.5;entryDx=0;entryDy=0;fontSize=12;startSize=8;endSize=8;" edge="1" parent="1" source="x8j_IPwiLFdPTcWcqeIL-28" target="x8j_IPwiLFdPTcWcqeIL-71">
          <mxGeometry relative="1" as="geometry" />
        </mxCell>
        <mxCell id="x8j_IPwiLFdPTcWcqeIL-28" value="Inventario" style="shape=ext;margin=3;double=1;whiteSpace=wrap;html=1;align=center;" vertex="1" parent="1">
          <mxGeometry x="1019" y="210" width="100" height="40" as="geometry" />
        </mxCell>
        <mxCell id="x8j_IPwiLFdPTcWcqeIL-36" value="E-mail" style="ellipse;whiteSpace=wrap;html=1;align=center;newEdgeStyle={&quot;edgeStyle&quot;:&quot;entityRelationEdgeStyle&quot;,&quot;startArrow&quot;:&quot;none&quot;,&quot;endArrow&quot;:&quot;none&quot;,&quot;segment&quot;:10,&quot;curved&quot;:1,&quot;sourcePerimeterSpacing&quot;:0,&quot;targetPerimeterSpacing&quot;:0};treeFolding=1;treeMoving=1;" vertex="1" parent="1">
          <mxGeometry x="156" y="701" width="100" height="40" as="geometry" />
        </mxCell>
        <mxCell id="x8j_IPwiLFdPTcWcqeIL-76" style="edgeStyle=orthogonalEdgeStyle;rounded=0;orthogonalLoop=1;jettySize=auto;html=1;startArrow=none;endArrow=none;segment=10;sourcePerimeterSpacing=0;targetPerimeterSpacing=0;exitX=1;exitY=0.5;exitDx=0;exitDy=0;entryX=0;entryY=0.5;entryDx=0;entryDy=0;fontSize=12;" edge="1" parent="1" source="x8j_IPwiLFdPTcWcqeIL-37" target="x8j_IPwiLFdPTcWcqeIL-75">
          <mxGeometry relative="1" as="geometry" />
        </mxCell>
        <mxCell id="x8j_IPwiLFdPTcWcqeIL-37" value="DirecciÃ³n" style="ellipse;whiteSpace=wrap;html=1;align=center;newEdgeStyle={&quot;edgeStyle&quot;:&quot;entityRelationEdgeStyle&quot;,&quot;startArrow&quot;:&quot;none&quot;,&quot;endArrow&quot;:&quot;none&quot;,&quot;segment&quot;:10,&quot;curved&quot;:1,&quot;sourcePerimeterSpacing&quot;:0,&quot;targetPerimeterSpacing&quot;:0};treeFolding=1;treeMoving=1;" vertex="1" parent="1">
          <mxGeometry x="156" y="594" width="100" height="40" as="geometry" />
        </mxCell>
        <mxCell id="x8j_IPwiLFdPTcWcqeIL-38" value="TelÃ©fono" style="ellipse;whiteSpace=wrap;html=1;align=center;newEdgeStyle={&quot;edgeStyle&quot;:&quot;entityRelationEdgeStyle&quot;,&quot;startArrow&quot;:&quot;none&quot;,&quot;endArrow&quot;:&quot;none&quot;,&quot;segment&quot;:10,&quot;curved&quot;:1,&quot;sourcePerimeterSpacing&quot;:0,&quot;targetPerimeterSpacing&quot;:0};treeFolding=1;treeMoving=1;" vertex="1" parent="1">
          <mxGeometry x="156" y="644" width="100" height="40" as="geometry" />
        </mxCell>
        <mxCell id="x8j_IPwiLFdPTcWcqeIL-39" value="Barrio" style="ellipse;whiteSpace=wrap;html=1;align=center;dashed=1;" vertex="1" parent="1">
          <mxGeometry x="308" y="678" width="100" height="40" as="geometry" />
        </mxCell>
        <mxCell id="x8j_IPwiLFdPTcWcqeIL-41" value="Calle" style="ellipse;whiteSpace=wrap;html=1;align=center;dashed=1;" vertex="1" parent="1">
          <mxGeometry x="308" y="625" width="100" height="40" as="geometry" />
        </mxCell>
        <mxCell id="x8j_IPwiLFdPTcWcqeIL-44" style="edgeStyle=orthogonalEdgeStyle;rounded=0;orthogonalLoop=1;jettySize=auto;html=1;entryX=0;entryY=0.5;entryDx=0;entryDy=0;fontSize=12;startSize=8;endSize=8;exitX=1;exitY=0.5;exitDx=0;exitDy=0;" edge="1" parent="1" source="x8j_IPwiLFdPTcWcqeIL-37" target="x8j_IPwiLFdPTcWcqeIL-41">
          <mxGeometry relative="1" as="geometry">
            <mxPoint x="298" y="416" as="sourcePoint" />
            <mxPoint x="319" y="472" as="targetPoint" />
          </mxGeometry>
        </mxCell>
        <mxCell id="x8j_IPwiLFdPTcWcqeIL-45" style="edgeStyle=orthogonalEdgeStyle;rounded=0;orthogonalLoop=1;jettySize=auto;html=1;entryX=0;entryY=0.5;entryDx=0;entryDy=0;fontSize=12;startSize=8;endSize=8;exitX=1;exitY=0.5;exitDx=0;exitDy=0;" edge="1" parent="1" source="x8j_IPwiLFdPTcWcqeIL-37" target="x8j_IPwiLFdPTcWcqeIL-39">
          <mxGeometry relative="1" as="geometry">
            <mxPoint x="298" y="416" as="sourcePoint" />
            <mxPoint x="317" y="546" as="targetPoint" />
          </mxGeometry>
        </mxCell>
        <mxCell id="x8j_IPwiLFdPTcWcqeIL-60" style="edgeStyle=none;curved=1;rounded=0;orthogonalLoop=1;jettySize=auto;html=1;entryX=0.5;entryY=0;entryDx=0;entryDy=0;fontSize=12;startSize=8;endSize=8;" edge="1" parent="1" source="x8j_IPwiLFdPTcWcqeIL-50" target="x8j_IPwiLFdPTcWcqeIL-52">
          <mxGeometry relative="1" as="geometry" />
        </mxCell>
        <mxCell id="x8j_IPwiLFdPTcWcqeIL-50" value="Pertenece" style="html=1;whiteSpace=wrap;aspect=fixed;shape=isoRectangle;" vertex="1" parent="1">
          <mxGeometry x="613" y="327" width="150" height="90" as="geometry" />
        </mxCell>
        <mxCell id="x8j_IPwiLFdPTcWcqeIL-51" style="edgeStyle=none;curved=1;rounded=0;orthogonalLoop=1;jettySize=auto;html=1;entryX=0.503;entryY=0.006;entryDx=0;entryDy=0;entryPerimeter=0;fontSize=12;startSize=8;endSize=8;" edge="1" parent="1" source="x8j_IPwiLFdPTcWcqeIL-20">
          <mxGeometry relative="1" as="geometry">
            <mxPoint x="688.4499999999998" y="325.5400000000004" as="targetPoint" />
          </mxGeometry>
        </mxCell>
        <mxCell id="x8j_IPwiLFdPTcWcqeIL-67" value="" style="edgeStyle=none;curved=1;rounded=0;orthogonalLoop=1;jettySize=auto;html=1;fontSize=12;startSize=8;endSize=8;" edge="1" parent="1" source="x8j_IPwiLFdPTcWcqeIL-52" target="x8j_IPwiLFdPTcWcqeIL-66">
          <mxGeometry relative="1" as="geometry" />
        </mxCell>
        <mxCell id="x8j_IPwiLFdPTcWcqeIL-88" style="edgeStyle=orthogonalEdgeStyle;rounded=0;orthogonalLoop=1;jettySize=auto;html=1;entryX=0;entryY=0.5;entryDx=0;entryDy=0;fontSize=12;startSize=8;endSize=8;" edge="1" parent="1" source="x8j_IPwiLFdPTcWcqeIL-52" target="x8j_IPwiLFdPTcWcqeIL-80">
          <mxGeometry relative="1" as="geometry" />
        </mxCell>
        <mxCell id="x8j_IPwiLFdPTcWcqeIL-89" style="edgeStyle=orthogonalEdgeStyle;rounded=0;orthogonalLoop=1;jettySize=auto;html=1;entryX=0;entryY=0.5;entryDx=0;entryDy=0;fontSize=12;startSize=8;endSize=8;" edge="1" parent="1" source="x8j_IPwiLFdPTcWcqeIL-52" target="x8j_IPwiLFdPTcWcqeIL-81">
          <mxGeometry relative="1" as="geometry" />
        </mxCell>
        <mxCell id="x8j_IPwiLFdPTcWcqeIL-90" style="edgeStyle=orthogonalEdgeStyle;rounded=0;orthogonalLoop=1;jettySize=auto;html=1;entryX=0;entryY=0.5;entryDx=0;entryDy=0;fontSize=12;startSize=8;endSize=8;" edge="1" parent="1" source="x8j_IPwiLFdPTcWcqeIL-52" target="x8j_IPwiLFdPTcWcqeIL-78">
          <mxGeometry relative="1" as="geometry" />
        </mxCell>
        <mxCell id="x8j_IPwiLFdPTcWcqeIL-52" value="Editorial" style="rounded=0;whiteSpace=wrap;html=1;" vertex="1" parent="1">
          <mxGeometry x="628" y="480" width="120" height="60" as="geometry" />
        </mxCell>
        <mxCell id="x8j_IPwiLFdPTcWcqeIL-61" value="(1,1)" style="text;strokeColor=none;fillColor=none;html=1;align=center;verticalAlign=middle;whiteSpace=wrap;rounded=0;fontSize=16;" vertex="1" parent="1">
          <mxGeometry x="688" y="450" width="60" height="30" as="geometry" />
        </mxCell>
        <mxCell id="x8j_IPwiLFdPTcWcqeIL-62" value="&lt;u&gt;CÃ³digo Libro&lt;/u&gt;" style="ellipse;whiteSpace=wrap;html=1;align=center;newEdgeStyle={&quot;edgeStyle&quot;:&quot;entityRelationEdgeStyle&quot;,&quot;startArrow&quot;:&quot;none&quot;,&quot;endArrow&quot;:&quot;none&quot;,&quot;segment&quot;:10,&quot;curved&quot;:1,&quot;sourcePerimeterSpacing&quot;:0,&quot;targetPerimeterSpacing&quot;:0};treeFolding=1;treeMoving=1;" vertex="1" parent="1">
          <mxGeometry x="473" y="260" width="100" height="40" as="geometry" />
        </mxCell>
        <mxCell id="x8j_IPwiLFdPTcWcqeIL-63" value="&lt;u&gt;CÃ³digo Editorial&lt;/u&gt;" style="ellipse;whiteSpace=wrap;html=1;align=center;newEdgeStyle={&quot;edgeStyle&quot;:&quot;entityRelationEdgeStyle&quot;,&quot;startArrow&quot;:&quot;none&quot;,&quot;endArrow&quot;:&quot;none&quot;,&quot;segment&quot;:10,&quot;curved&quot;:1,&quot;sourcePerimeterSpacing&quot;:0,&quot;targetPerimeterSpacing&quot;:0};treeFolding=1;treeMoving=1;" vertex="1" parent="1">
          <mxGeometry x="522" y="310" width="100" height="40" as="geometry" />
        </mxCell>
        <mxCell id="x8j_IPwiLFdPTcWcqeIL-66" value="&lt;u&gt;CÃ³digo Editorial&lt;/u&gt;" style="ellipse;whiteSpace=wrap;html=1;align=center;newEdgeStyle={&quot;edgeStyle&quot;:&quot;entityRelationEdgeStyle&quot;,&quot;startArrow&quot;:&quot;none&quot;,&quot;endArrow&quot;:&quot;none&quot;,&quot;segment&quot;:10,&quot;curved&quot;:1,&quot;sourcePerimeterSpacing&quot;:0,&quot;targetPerimeterSpacing&quot;:0};treeFolding=1;treeMoving=1;" vertex="1" parent="1">
          <mxGeometry x="862" y="490" width="100" height="40" as="geometry" />
        </mxCell>
        <mxCell id="x8j_IPwiLFdPTcWcqeIL-68" value="(0,1)" style="text;strokeColor=none;fillColor=none;html=1;align=center;verticalAlign=middle;whiteSpace=wrap;rounded=0;fontSize=16;" vertex="1" parent="1">
          <mxGeometry x="959" y="200" width="60" height="30" as="geometry" />
        </mxCell>
        <mxCell id="x8j_IPwiLFdPTcWcqeIL-69" value="Cantidad" style="ellipse;whiteSpace=wrap;html=1;align=center;newEdgeStyle={&quot;edgeStyle&quot;:&quot;entityRelationEdgeStyle&quot;,&quot;startArrow&quot;:&quot;none&quot;,&quot;endArrow&quot;:&quot;none&quot;,&quot;segment&quot;:10,&quot;curved&quot;:1,&quot;sourcePerimeterSpacing&quot;:0,&quot;targetPerimeterSpacing&quot;:0};treeFolding=1;treeMoving=1;" vertex="1" parent="1">
          <mxGeometry x="1088" y="287" width="100" height="40" as="geometry" />
        </mxCell>
        <mxCell id="x8j_IPwiLFdPTcWcqeIL-70" value="&lt;u&gt;CÃ³digo Libro&lt;/u&gt;" style="ellipse;whiteSpace=wrap;html=1;align=center;newEdgeStyle={&quot;edgeStyle&quot;:&quot;entityRelationEdgeStyle&quot;,&quot;startArrow&quot;:&quot;none&quot;,&quot;endArrow&quot;:&quot;none&quot;,&quot;segment&quot;:10,&quot;curved&quot;:1,&quot;sourcePerimeterSpacing&quot;:0,&quot;targetPerimeterSpacing&quot;:0};treeFolding=1;treeMoving=1;" vertex="1" parent="1">
          <mxGeometry x="1088" y="346" width="100" height="40" as="geometry" />
        </mxCell>
        <mxCell id="x8j_IPwiLFdPTcWcqeIL-71" value="&lt;u&gt;CÃ³digo Editorial&lt;/u&gt;" style="ellipse;whiteSpace=wrap;html=1;align=center;newEdgeStyle={&quot;edgeStyle&quot;:&quot;entityRelationEdgeStyle&quot;,&quot;startArrow&quot;:&quot;none&quot;,&quot;endArrow&quot;:&quot;none&quot;,&quot;segment&quot;:10,&quot;curved&quot;:1,&quot;sourcePerimeterSpacing&quot;:0,&quot;targetPerimeterSpacing&quot;:0};treeFolding=1;treeMoving=1;" vertex="1" parent="1">
          <mxGeometry x="1088" y="402" width="100" height="40" as="geometry" />
        </mxCell>
        <mxCell id="x8j_IPwiLFdPTcWcqeIL-75" value="Ciudad" style="ellipse;whiteSpace=wrap;html=1;align=center;dashed=1;" vertex="1" parent="1">
          <mxGeometry x="307" y="733" width="100" height="40" as="geometry" />
        </mxCell>
        <mxCell id="x8j_IPwiLFdPTcWcqeIL-77" style="edgeStyle=orthogonalEdgeStyle;rounded=0;orthogonalLoop=1;jettySize=auto;html=1;entryX=0;entryY=0.5;entryDx=0;entryDy=0;fontSize=12;startSize=8;endSize=8;exitX=1;exitY=0.5;exitDx=0;exitDy=0;" edge="1" parent="1" source="x8j_IPwiLFdPTcWcqeIL-37" target="x8j_IPwiLFdPTcWcqeIL-75">
          <mxGeometry relative="1" as="geometry">
            <mxPoint x="266" y="624" as="sourcePoint" />
            <mxPoint x="318" y="708" as="targetPoint" />
          </mxGeometry>
        </mxCell>
        <mxCell id="x8j_IPwiLFdPTcWcqeIL-78" value="E-mail" style="ellipse;whiteSpace=wrap;html=1;align=center;newEdgeStyle={&quot;edgeStyle&quot;:&quot;entityRelationEdgeStyle&quot;,&quot;startArrow&quot;:&quot;none&quot;,&quot;endArrow&quot;:&quot;none&quot;,&quot;segment&quot;:10,&quot;curved&quot;:1,&quot;sourcePerimeterSpacing&quot;:0,&quot;targetPerimeterSpacing&quot;:0};treeFolding=1;treeMoving=1;" vertex="1" parent="1">
          <mxGeometry x="714" y="705" width="100" height="40" as="geometry" />
        </mxCell>
        <mxCell id="x8j_IPwiLFdPTcWcqeIL-80" value="TelÃ©fono" style="ellipse;whiteSpace=wrap;html=1;align=center;newEdgeStyle={&quot;edgeStyle&quot;:&quot;entityRelationEdgeStyle&quot;,&quot;startArrow&quot;:&quot;none&quot;,&quot;endArrow&quot;:&quot;none&quot;,&quot;segment&quot;:10,&quot;curved&quot;:1,&quot;sourcePerimeterSpacing&quot;:0,&quot;targetPerimeterSpacing&quot;:0};treeFolding=1;treeMoving=1;" vertex="1" parent="1">
          <mxGeometry x="714" y="598" width="100" height="40" as="geometry" />
        </mxCell>
        <mxCell id="x8j_IPwiLFdPTcWcqeIL-81" value="Nombre_contacto" style="ellipse;whiteSpace=wrap;html=1;align=center;newEdgeStyle={&quot;edgeStyle&quot;:&quot;entityRelationEdgeStyle&quot;,&quot;startArrow&quot;:&quot;none&quot;,&quot;endArrow&quot;:&quot;none&quot;,&quot;segment&quot;:10,&quot;curved&quot;:1,&quot;sourcePerimeterSpacing&quot;:0,&quot;targetPerimeterSpacing&quot;:0};treeFolding=1;treeMoving=1;" vertex="1" parent="1">
          <mxGeometry x="714" y="648" width="100" height="40" as="geometry" />
        </mxCell>
        <mxCell id="x8j_IPwiLFdPTcWcqeIL-82" value="TelÃ©fono_2" style="ellipse;whiteSpace=wrap;html=1;align=center;dashed=1;" vertex="1" parent="1">
          <mxGeometry x="869" y="644" width="100" height="40" as="geometry" />
        </mxCell>
        <mxCell id="x8j_IPwiLFdPTcWcqeIL-83" value="TelÃ©fono_1" style="ellipse;whiteSpace=wrap;html=1;align=center;dashed=1;" vertex="1" parent="1">
          <mxGeometry x="869" y="590" width="100" height="40" as="geometry" />
        </mxCell>
        <mxCell id="x8j_IPwiLFdPTcWcqeIL-84" style="edgeStyle=orthogonalEdgeStyle;rounded=0;orthogonalLoop=1;jettySize=auto;html=1;entryX=0;entryY=0.5;entryDx=0;entryDy=0;fontSize=12;startSize=8;endSize=8;exitX=1;exitY=0.5;exitDx=0;exitDy=0;" edge="1" parent="1" source="x8j_IPwiLFdPTcWcqeIL-80" target="x8j_IPwiLFdPTcWcqeIL-83">
          <mxGeometry relative="1" as="geometry">
            <mxPoint x="856" y="420" as="sourcePoint" />
            <mxPoint x="877" y="476" as="targetPoint" />
          </mxGeometry>
        </mxCell>
        <mxCell id="x8j_IPwiLFdPTcWcqeIL-85" style="edgeStyle=orthogonalEdgeStyle;rounded=0;orthogonalLoop=1;jettySize=auto;html=1;entryX=0;entryY=0.5;entryDx=0;entryDy=0;fontSize=12;startSize=8;endSize=8;exitX=1;exitY=0.5;exitDx=0;exitDy=0;" edge="1" parent="1" source="x8j_IPwiLFdPTcWcqeIL-80" target="x8j_IPwiLFdPTcWcqeIL-82">
          <mxGeometry relative="1" as="geometry">
            <mxPoint x="856" y="420" as="sourcePoint" />
            <mxPoint x="875" y="550" as="targetPoint" />
          </mxGeometry>
        </mxCell>
      </root>
    </mxGraphModel>
  </diagram>
  <diagram id="TVT7JfSJD8WdQ7FUh6cf" name="Modelo_Logico">
    <mxGraphModel dx="1678" dy="1905" grid="0" gridSize="10" guides="1" tooltips="1" connect="1" arrows="1" fold="1" page="0" pageScale="1" pageWidth="827" pageHeight="1169" math="0" shadow="0">
      <root>
        <mxCell id="0" />
        <mxCell id="1" parent="0" />
        <mxCell id="u6JI1k4PTeRpNMcWvp9j-13" value="EDITORIAL" style="shape=table;startSize=30;container=1;collapsible=1;childLayout=tableLayout;fixedRows=1;rowLines=0;fontStyle=1;align=center;resizeLast=1;html=1;" vertex="1" parent="1">
          <mxGeometry x="318" y="344" width="180" height="180" as="geometry" />
        </mxCell>
        <mxCell id="u6JI1k4PTeRpNMcWvp9j-14" value="" style="shape=tableRow;horizontal=0;startSize=0;swimlaneHead=0;swimlaneBody=0;fillColor=none;collapsible=0;dropTarget=0;points=[[0,0.5],[1,0.5]];portConstraint=eastwest;top=0;left=0;right=0;bottom=1;" vertex="1" parent="u6JI1k4PTeRpNMcWvp9j-13">
          <mxGeometry y="30" width="180" height="30" as="geometry" />
        </mxCell>
        <mxCell id="u6JI1k4PTeRpNMcWvp9j-15" value="PK" style="shape=partialRectangle;connectable=0;fillColor=none;top=0;left=0;bottom=0;right=0;fontStyle=1;overflow=hidden;whiteSpace=wrap;html=1;" vertex="1" parent="u6JI1k4PTeRpNMcWvp9j-14">
          <mxGeometry width="30" height="30" as="geometry">
            <mxRectangle width="30" height="30" as="alternateBounds" />
          </mxGeometry>
        </mxCell>
        <mxCell id="u6JI1k4PTeRpNMcWvp9j-16" value="cod_Editorail" style="shape=partialRectangle;connectable=0;fillColor=none;top=0;left=0;bottom=0;right=0;align=left;spacingLeft=6;fontStyle=5;overflow=hidden;whiteSpace=wrap;html=1;" vertex="1" parent="u6JI1k4PTeRpNMcWvp9j-14">
          <mxGeometry x="30" width="150" height="30" as="geometry">
            <mxRectangle width="150" height="30" as="alternateBounds" />
          </mxGeometry>
        </mxCell>
        <mxCell id="u6JI1k4PTeRpNMcWvp9j-17" value="" style="shape=tableRow;horizontal=0;startSize=0;swimlaneHead=0;swimlaneBody=0;fillColor=none;collapsible=0;dropTarget=0;points=[[0,0.5],[1,0.5]];portConstraint=eastwest;top=0;left=0;right=0;bottom=0;" vertex="1" parent="u6JI1k4PTeRpNMcWvp9j-13">
          <mxGeometry y="60" width="180" height="30" as="geometry" />
        </mxCell>
        <mxCell id="u6JI1k4PTeRpNMcWvp9j-18" value="" style="shape=partialRectangle;connectable=0;fillColor=none;top=0;left=0;bottom=0;right=0;editable=1;overflow=hidden;whiteSpace=wrap;html=1;" vertex="1" parent="u6JI1k4PTeRpNMcWvp9j-17">
          <mxGeometry width="30" height="30" as="geometry">
            <mxRectangle width="30" height="30" as="alternateBounds" />
          </mxGeometry>
        </mxCell>
        <mxCell id="u6JI1k4PTeRpNMcWvp9j-19" value="nombre_contacto" style="shape=partialRectangle;connectable=0;fillColor=none;top=0;left=0;bottom=0;right=0;align=left;spacingLeft=6;overflow=hidden;whiteSpace=wrap;html=1;" vertex="1" parent="u6JI1k4PTeRpNMcWvp9j-17">
          <mxGeometry x="30" width="150" height="30" as="geometry">
            <mxRectangle width="150" height="30" as="alternateBounds" />
          </mxGeometry>
        </mxCell>
        <mxCell id="u6JI1k4PTeRpNMcWvp9j-20" value="" style="shape=tableRow;horizontal=0;startSize=0;swimlaneHead=0;swimlaneBody=0;fillColor=none;collapsible=0;dropTarget=0;points=[[0,0.5],[1,0.5]];portConstraint=eastwest;top=0;left=0;right=0;bottom=0;" vertex="1" parent="u6JI1k4PTeRpNMcWvp9j-13">
          <mxGeometry y="90" width="180" height="30" as="geometry" />
        </mxCell>
        <mxCell id="u6JI1k4PTeRpNMcWvp9j-21" value="" style="shape=partialRectangle;connectable=0;fillColor=none;top=0;left=0;bottom=0;right=0;editable=1;overflow=hidden;whiteSpace=wrap;html=1;" vertex="1" parent="u6JI1k4PTeRpNMcWvp9j-20">
          <mxGeometry width="30" height="30" as="geometry">
            <mxRectangle width="30" height="30" as="alternateBounds" />
          </mxGeometry>
        </mxCell>
        <mxCell id="u6JI1k4PTeRpNMcWvp9j-22" value="email" style="shape=partialRectangle;connectable=0;fillColor=none;top=0;left=0;bottom=0;right=0;align=left;spacingLeft=6;overflow=hidden;whiteSpace=wrap;html=1;" vertex="1" parent="u6JI1k4PTeRpNMcWvp9j-20">
          <mxGeometry x="30" width="150" height="30" as="geometry">
            <mxRectangle width="150" height="30" as="alternateBounds" />
          </mxGeometry>
        </mxCell>
        <mxCell id="u6JI1k4PTeRpNMcWvp9j-23" value="" style="shape=tableRow;horizontal=0;startSize=0;swimlaneHead=0;swimlaneBody=0;fillColor=none;collapsible=0;dropTarget=0;points=[[0,0.5],[1,0.5]];portConstraint=eastwest;top=0;left=0;right=0;bottom=0;" vertex="1" parent="u6JI1k4PTeRpNMcWvp9j-13">
          <mxGeometry y="120" width="180" height="30" as="geometry" />
        </mxCell>
        <mxCell id="u6JI1k4PTeRpNMcWvp9j-24" value="" style="shape=partialRectangle;connectable=0;fillColor=none;top=0;left=0;bottom=0;right=0;editable=1;overflow=hidden;whiteSpace=wrap;html=1;" vertex="1" parent="u6JI1k4PTeRpNMcWvp9j-23">
          <mxGeometry width="30" height="30" as="geometry">
            <mxRectangle width="30" height="30" as="alternateBounds" />
          </mxGeometry>
        </mxCell>
        <mxCell id="u6JI1k4PTeRpNMcWvp9j-25" value="telefono_1" style="shape=partialRectangle;connectable=0;fillColor=none;top=0;left=0;bottom=0;right=0;align=left;spacingLeft=6;overflow=hidden;whiteSpace=wrap;html=1;" vertex="1" parent="u6JI1k4PTeRpNMcWvp9j-23">
          <mxGeometry x="30" width="150" height="30" as="geometry">
            <mxRectangle width="150" height="30" as="alternateBounds" />
          </mxGeometry>
        </mxCell>
        <mxCell id="u6JI1k4PTeRpNMcWvp9j-26" value="" style="shape=tableRow;horizontal=0;startSize=0;swimlaneHead=0;swimlaneBody=0;fillColor=none;collapsible=0;dropTarget=0;points=[[0,0.5],[1,0.5]];portConstraint=eastwest;top=0;left=0;right=0;bottom=0;" vertex="1" parent="u6JI1k4PTeRpNMcWvp9j-13">
          <mxGeometry y="150" width="180" height="30" as="geometry" />
        </mxCell>
        <mxCell id="u6JI1k4PTeRpNMcWvp9j-27" value="" style="shape=partialRectangle;connectable=0;fillColor=none;top=0;left=0;bottom=0;right=0;editable=1;overflow=hidden;whiteSpace=wrap;html=1;" vertex="1" parent="u6JI1k4PTeRpNMcWvp9j-26">
          <mxGeometry width="30" height="30" as="geometry">
            <mxRectangle width="30" height="30" as="alternateBounds" />
          </mxGeometry>
        </mxCell>
        <mxCell id="u6JI1k4PTeRpNMcWvp9j-28" value="telefono_2" style="shape=partialRectangle;connectable=0;fillColor=none;top=0;left=0;bottom=0;right=0;align=left;spacingLeft=6;overflow=hidden;whiteSpace=wrap;html=1;" vertex="1" parent="u6JI1k4PTeRpNMcWvp9j-26">
          <mxGeometry x="30" width="150" height="30" as="geometry">
            <mxRectangle width="150" height="30" as="alternateBounds" />
          </mxGeometry>
        </mxCell>
        <mxCell id="SsLDp9xBKbJSAmOkXXGd-21" style="edgeStyle=none;curved=1;rounded=0;orthogonalLoop=1;jettySize=auto;html=1;entryX=0.5;entryY=0;entryDx=0;entryDy=0;fontSize=12;startSize=8;endSize=8;endArrow=none;startFill=0;" edge="1" parent="1" source="u6JI1k4PTeRpNMcWvp9j-42" target="u6JI1k4PTeRpNMcWvp9j-99">
          <mxGeometry relative="1" as="geometry" />
        </mxCell>
        <mxCell id="u6JI1k4PTeRpNMcWvp9j-42" value="PEDIDO" style="shape=table;startSize=30;container=1;collapsible=1;childLayout=tableLayout;fixedRows=1;rowLines=0;fontStyle=1;align=center;resizeLast=1;html=1;whiteSpace=wrap;" vertex="1" parent="1">
          <mxGeometry x="311" y="-299" width="180" height="150" as="geometry" />
        </mxCell>
        <mxCell id="u6JI1k4PTeRpNMcWvp9j-43" value="" style="shape=tableRow;horizontal=0;startSize=0;swimlaneHead=0;swimlaneBody=0;fillColor=none;collapsible=0;dropTarget=0;points=[[0,0.5],[1,0.5]];portConstraint=eastwest;top=0;left=0;right=0;bottom=0;html=1;" vertex="1" parent="u6JI1k4PTeRpNMcWvp9j-42">
          <mxGeometry y="30" width="180" height="30" as="geometry" />
        </mxCell>
        <mxCell id="u6JI1k4PTeRpNMcWvp9j-44" value="PK" style="shape=partialRectangle;connectable=0;fillColor=none;top=0;left=0;bottom=0;right=0;fontStyle=1;overflow=hidden;html=1;whiteSpace=wrap;" vertex="1" parent="u6JI1k4PTeRpNMcWvp9j-43">
          <mxGeometry width="60" height="30" as="geometry">
            <mxRectangle width="60" height="30" as="alternateBounds" />
          </mxGeometry>
        </mxCell>
        <mxCell id="u6JI1k4PTeRpNMcWvp9j-45" value="cod_pedido" style="shape=partialRectangle;connectable=0;fillColor=none;top=0;left=0;bottom=0;right=0;align=left;spacingLeft=6;fontStyle=5;overflow=hidden;html=1;whiteSpace=wrap;" vertex="1" parent="u6JI1k4PTeRpNMcWvp9j-43">
          <mxGeometry x="60" width="120" height="30" as="geometry">
            <mxRectangle width="120" height="30" as="alternateBounds" />
          </mxGeometry>
        </mxCell>
        <mxCell id="u6JI1k4PTeRpNMcWvp9j-46" value="" style="shape=tableRow;horizontal=0;startSize=0;swimlaneHead=0;swimlaneBody=0;fillColor=none;collapsible=0;dropTarget=0;points=[[0,0.5],[1,0.5]];portConstraint=eastwest;top=0;left=0;right=0;bottom=1;html=1;" vertex="1" parent="u6JI1k4PTeRpNMcWvp9j-42">
          <mxGeometry y="60" width="180" height="30" as="geometry" />
        </mxCell>
        <mxCell id="u6JI1k4PTeRpNMcWvp9j-47" value="FK" style="shape=partialRectangle;connectable=0;fillColor=none;top=0;left=0;bottom=0;right=0;fontStyle=1;overflow=hidden;html=1;whiteSpace=wrap;" vertex="1" parent="u6JI1k4PTeRpNMcWvp9j-46">
          <mxGeometry width="60" height="30" as="geometry">
            <mxRectangle width="60" height="30" as="alternateBounds" />
          </mxGeometry>
        </mxCell>
        <mxCell id="u6JI1k4PTeRpNMcWvp9j-48" value="cod_cliente" style="shape=partialRectangle;connectable=0;fillColor=none;top=0;left=0;bottom=0;right=0;align=left;spacingLeft=6;fontStyle=5;overflow=hidden;html=1;whiteSpace=wrap;" vertex="1" parent="u6JI1k4PTeRpNMcWvp9j-46">
          <mxGeometry x="60" width="120" height="30" as="geometry">
            <mxRectangle width="120" height="30" as="alternateBounds" />
          </mxGeometry>
        </mxCell>
        <mxCell id="u6JI1k4PTeRpNMcWvp9j-49" value="" style="shape=tableRow;horizontal=0;startSize=0;swimlaneHead=0;swimlaneBody=0;fillColor=none;collapsible=0;dropTarget=0;points=[[0,0.5],[1,0.5]];portConstraint=eastwest;top=0;left=0;right=0;bottom=0;html=1;" vertex="1" parent="u6JI1k4PTeRpNMcWvp9j-42">
          <mxGeometry y="90" width="180" height="30" as="geometry" />
        </mxCell>
        <mxCell id="u6JI1k4PTeRpNMcWvp9j-50" value="" style="shape=partialRectangle;connectable=0;fillColor=none;top=0;left=0;bottom=0;right=0;editable=1;overflow=hidden;html=1;whiteSpace=wrap;" vertex="1" parent="u6JI1k4PTeRpNMcWvp9j-49">
          <mxGeometry width="60" height="30" as="geometry">
            <mxRectangle width="60" height="30" as="alternateBounds" />
          </mxGeometry>
        </mxCell>
        <mxCell id="u6JI1k4PTeRpNMcWvp9j-51" value="fecha" style="shape=partialRectangle;connectable=0;fillColor=none;top=0;left=0;bottom=0;right=0;align=left;spacingLeft=6;overflow=hidden;html=1;whiteSpace=wrap;" vertex="1" parent="u6JI1k4PTeRpNMcWvp9j-49">
          <mxGeometry x="60" width="120" height="30" as="geometry">
            <mxRectangle width="120" height="30" as="alternateBounds" />
          </mxGeometry>
        </mxCell>
        <mxCell id="u6JI1k4PTeRpNMcWvp9j-52" value="" style="shape=tableRow;horizontal=0;startSize=0;swimlaneHead=0;swimlaneBody=0;fillColor=none;collapsible=0;dropTarget=0;points=[[0,0.5],[1,0.5]];portConstraint=eastwest;top=0;left=0;right=0;bottom=0;html=1;" vertex="1" parent="u6JI1k4PTeRpNMcWvp9j-42">
          <mxGeometry y="120" width="180" height="30" as="geometry" />
        </mxCell>
        <mxCell id="u6JI1k4PTeRpNMcWvp9j-53" value="" style="shape=partialRectangle;connectable=0;fillColor=none;top=0;left=0;bottom=0;right=0;editable=1;overflow=hidden;html=1;whiteSpace=wrap;" vertex="1" parent="u6JI1k4PTeRpNMcWvp9j-52">
          <mxGeometry width="60" height="30" as="geometry">
            <mxRectangle width="60" height="30" as="alternateBounds" />
          </mxGeometry>
        </mxCell>
        <mxCell id="u6JI1k4PTeRpNMcWvp9j-54" value="valor" style="shape=partialRectangle;connectable=0;fillColor=none;top=0;left=0;bottom=0;right=0;align=left;spacingLeft=6;overflow=hidden;html=1;whiteSpace=wrap;" vertex="1" parent="u6JI1k4PTeRpNMcWvp9j-52">
          <mxGeometry x="60" width="120" height="30" as="geometry">
            <mxRectangle width="120" height="30" as="alternateBounds" />
          </mxGeometry>
        </mxCell>
        <mxCell id="u6JI1k4PTeRpNMcWvp9j-55" value="LIBRO" style="shape=table;startSize=30;container=1;collapsible=1;childLayout=tableLayout;fixedRows=1;rowLines=0;fontStyle=1;align=center;resizeLast=1;html=1;whiteSpace=wrap;" vertex="1" parent="1">
          <mxGeometry x="17" y="224" width="180" height="300" as="geometry" />
        </mxCell>
        <mxCell id="u6JI1k4PTeRpNMcWvp9j-56" value="" style="shape=tableRow;horizontal=0;startSize=0;swimlaneHead=0;swimlaneBody=0;fillColor=none;collapsible=0;dropTarget=0;points=[[0,0.5],[1,0.5]];portConstraint=eastwest;top=0;left=0;right=0;bottom=0;html=1;" vertex="1" parent="u6JI1k4PTeRpNMcWvp9j-55">
          <mxGeometry y="30" width="180" height="30" as="geometry" />
        </mxCell>
        <mxCell id="u6JI1k4PTeRpNMcWvp9j-57" value="PK" style="shape=partialRectangle;connectable=0;fillColor=none;top=0;left=0;bottom=0;right=0;fontStyle=1;overflow=hidden;html=1;whiteSpace=wrap;" vertex="1" parent="u6JI1k4PTeRpNMcWvp9j-56">
          <mxGeometry width="60" height="30" as="geometry">
            <mxRectangle width="60" height="30" as="alternateBounds" />
          </mxGeometry>
        </mxCell>
        <mxCell id="u6JI1k4PTeRpNMcWvp9j-58" value="cod_libro" style="shape=partialRectangle;connectable=0;fillColor=none;top=0;left=0;bottom=0;right=0;align=left;spacingLeft=6;fontStyle=5;overflow=hidden;html=1;whiteSpace=wrap;" vertex="1" parent="u6JI1k4PTeRpNMcWvp9j-56">
          <mxGeometry x="60" width="120" height="30" as="geometry">
            <mxRectangle width="120" height="30" as="alternateBounds" />
          </mxGeometry>
        </mxCell>
        <mxCell id="u6JI1k4PTeRpNMcWvp9j-59" value="" style="shape=tableRow;horizontal=0;startSize=0;swimlaneHead=0;swimlaneBody=0;fillColor=none;collapsible=0;dropTarget=0;points=[[0,0.5],[1,0.5]];portConstraint=eastwest;top=0;left=0;right=0;bottom=1;html=1;" vertex="1" parent="u6JI1k4PTeRpNMcWvp9j-55">
          <mxGeometry y="60" width="180" height="30" as="geometry" />
        </mxCell>
        <mxCell id="u6JI1k4PTeRpNMcWvp9j-60" value="FK" style="shape=partialRectangle;connectable=0;fillColor=none;top=0;left=0;bottom=0;right=0;fontStyle=1;overflow=hidden;html=1;whiteSpace=wrap;" vertex="1" parent="u6JI1k4PTeRpNMcWvp9j-59">
          <mxGeometry width="60" height="30" as="geometry">
            <mxRectangle width="60" height="30" as="alternateBounds" />
          </mxGeometry>
        </mxCell>
        <mxCell id="u6JI1k4PTeRpNMcWvp9j-61" value="cod_editorial" style="shape=partialRectangle;connectable=0;fillColor=none;top=0;left=0;bottom=0;right=0;align=left;spacingLeft=6;fontStyle=5;overflow=hidden;html=1;whiteSpace=wrap;" vertex="1" parent="u6JI1k4PTeRpNMcWvp9j-59">
          <mxGeometry x="60" width="120" height="30" as="geometry">
            <mxRectangle width="120" height="30" as="alternateBounds" />
          </mxGeometry>
        </mxCell>
        <mxCell id="u6JI1k4PTeRpNMcWvp9j-62" value="" style="shape=tableRow;horizontal=0;startSize=0;swimlaneHead=0;swimlaneBody=0;fillColor=none;collapsible=0;dropTarget=0;points=[[0,0.5],[1,0.5]];portConstraint=eastwest;top=0;left=0;right=0;bottom=0;html=1;" vertex="1" parent="u6JI1k4PTeRpNMcWvp9j-55">
          <mxGeometry y="90" width="180" height="30" as="geometry" />
        </mxCell>
        <mxCell id="u6JI1k4PTeRpNMcWvp9j-63" value="" style="shape=partialRectangle;connectable=0;fillColor=none;top=0;left=0;bottom=0;right=0;editable=1;overflow=hidden;html=1;whiteSpace=wrap;" vertex="1" parent="u6JI1k4PTeRpNMcWvp9j-62">
          <mxGeometry width="60" height="30" as="geometry">
            <mxRectangle width="60" height="30" as="alternateBounds" />
          </mxGeometry>
        </mxCell>
        <mxCell id="u6JI1k4PTeRpNMcWvp9j-64" value="titulo" style="shape=partialRectangle;connectable=0;fillColor=none;top=0;left=0;bottom=0;right=0;align=left;spacingLeft=6;overflow=hidden;html=1;whiteSpace=wrap;" vertex="1" parent="u6JI1k4PTeRpNMcWvp9j-62">
          <mxGeometry x="60" width="120" height="30" as="geometry">
            <mxRectangle width="120" height="30" as="alternateBounds" />
          </mxGeometry>
        </mxCell>
        <mxCell id="u6JI1k4PTeRpNMcWvp9j-65" value="" style="shape=tableRow;horizontal=0;startSize=0;swimlaneHead=0;swimlaneBody=0;fillColor=none;collapsible=0;dropTarget=0;points=[[0,0.5],[1,0.5]];portConstraint=eastwest;top=0;left=0;right=0;bottom=0;html=1;" vertex="1" parent="u6JI1k4PTeRpNMcWvp9j-55">
          <mxGeometry y="120" width="180" height="30" as="geometry" />
        </mxCell>
        <mxCell id="u6JI1k4PTeRpNMcWvp9j-66" value="" style="shape=partialRectangle;connectable=0;fillColor=none;top=0;left=0;bottom=0;right=0;editable=1;overflow=hidden;html=1;whiteSpace=wrap;" vertex="1" parent="u6JI1k4PTeRpNMcWvp9j-65">
          <mxGeometry width="60" height="30" as="geometry">
            <mxRectangle width="60" height="30" as="alternateBounds" />
          </mxGeometry>
        </mxCell>
        <mxCell id="u6JI1k4PTeRpNMcWvp9j-67" value="categorÃ­a" style="shape=partialRectangle;connectable=0;fillColor=none;top=0;left=0;bottom=0;right=0;align=left;spacingLeft=6;overflow=hidden;html=1;whiteSpace=wrap;" vertex="1" parent="u6JI1k4PTeRpNMcWvp9j-65">
          <mxGeometry x="60" width="120" height="30" as="geometry">
            <mxRectangle width="120" height="30" as="alternateBounds" />
          </mxGeometry>
        </mxCell>
        <mxCell id="u6JI1k4PTeRpNMcWvp9j-68" value="" style="shape=tableRow;horizontal=0;startSize=0;swimlaneHead=0;swimlaneBody=0;fillColor=none;collapsible=0;dropTarget=0;points=[[0,0.5],[1,0.5]];portConstraint=eastwest;top=0;left=0;right=0;bottom=0;html=1;" vertex="1" parent="u6JI1k4PTeRpNMcWvp9j-55">
          <mxGeometry y="150" width="180" height="30" as="geometry" />
        </mxCell>
        <mxCell id="u6JI1k4PTeRpNMcWvp9j-69" value="" style="shape=partialRectangle;connectable=0;fillColor=none;top=0;left=0;bottom=0;right=0;editable=1;overflow=hidden;html=1;whiteSpace=wrap;" vertex="1" parent="u6JI1k4PTeRpNMcWvp9j-68">
          <mxGeometry width="60" height="30" as="geometry">
            <mxRectangle width="60" height="30" as="alternateBounds" />
          </mxGeometry>
        </mxCell>
        <mxCell id="u6JI1k4PTeRpNMcWvp9j-70" value="isbn" style="shape=partialRectangle;connectable=0;fillColor=none;top=0;left=0;bottom=0;right=0;align=left;spacingLeft=6;overflow=hidden;html=1;whiteSpace=wrap;" vertex="1" parent="u6JI1k4PTeRpNMcWvp9j-68">
          <mxGeometry x="60" width="120" height="30" as="geometry">
            <mxRectangle width="120" height="30" as="alternateBounds" />
          </mxGeometry>
        </mxCell>
        <mxCell id="u6JI1k4PTeRpNMcWvp9j-71" value="" style="shape=tableRow;horizontal=0;startSize=0;swimlaneHead=0;swimlaneBody=0;fillColor=none;collapsible=0;dropTarget=0;points=[[0,0.5],[1,0.5]];portConstraint=eastwest;top=0;left=0;right=0;bottom=0;html=1;" vertex="1" parent="u6JI1k4PTeRpNMcWvp9j-55">
          <mxGeometry y="180" width="180" height="30" as="geometry" />
        </mxCell>
        <mxCell id="u6JI1k4PTeRpNMcWvp9j-72" value="" style="shape=partialRectangle;connectable=0;fillColor=none;top=0;left=0;bottom=0;right=0;editable=1;overflow=hidden;html=1;whiteSpace=wrap;" vertex="1" parent="u6JI1k4PTeRpNMcWvp9j-71">
          <mxGeometry width="60" height="30" as="geometry">
            <mxRectangle width="60" height="30" as="alternateBounds" />
          </mxGeometry>
        </mxCell>
        <mxCell id="u6JI1k4PTeRpNMcWvp9j-73" value="ano_publicaion" style="shape=partialRectangle;connectable=0;fillColor=none;top=0;left=0;bottom=0;right=0;align=left;spacingLeft=6;overflow=hidden;html=1;whiteSpace=wrap;" vertex="1" parent="u6JI1k4PTeRpNMcWvp9j-71">
          <mxGeometry x="60" width="120" height="30" as="geometry">
            <mxRectangle width="120" height="30" as="alternateBounds" />
          </mxGeometry>
        </mxCell>
        <mxCell id="u6JI1k4PTeRpNMcWvp9j-74" value="" style="shape=tableRow;horizontal=0;startSize=0;swimlaneHead=0;swimlaneBody=0;fillColor=none;collapsible=0;dropTarget=0;points=[[0,0.5],[1,0.5]];portConstraint=eastwest;top=0;left=0;right=0;bottom=0;html=1;" vertex="1" parent="u6JI1k4PTeRpNMcWvp9j-55">
          <mxGeometry y="210" width="180" height="30" as="geometry" />
        </mxCell>
        <mxCell id="u6JI1k4PTeRpNMcWvp9j-75" value="" style="shape=partialRectangle;connectable=0;fillColor=none;top=0;left=0;bottom=0;right=0;editable=1;overflow=hidden;html=1;whiteSpace=wrap;" vertex="1" parent="u6JI1k4PTeRpNMcWvp9j-74">
          <mxGeometry width="60" height="30" as="geometry">
            <mxRectangle width="60" height="30" as="alternateBounds" />
          </mxGeometry>
        </mxCell>
        <mxCell id="u6JI1k4PTeRpNMcWvp9j-76" value="editorial" style="shape=partialRectangle;connectable=0;fillColor=none;top=0;left=0;bottom=0;right=0;align=left;spacingLeft=6;overflow=hidden;html=1;whiteSpace=wrap;" vertex="1" parent="u6JI1k4PTeRpNMcWvp9j-74">
          <mxGeometry x="60" width="120" height="30" as="geometry">
            <mxRectangle width="120" height="30" as="alternateBounds" />
          </mxGeometry>
        </mxCell>
        <mxCell id="u6JI1k4PTeRpNMcWvp9j-77" value="" style="shape=tableRow;horizontal=0;startSize=0;swimlaneHead=0;swimlaneBody=0;fillColor=none;collapsible=0;dropTarget=0;points=[[0,0.5],[1,0.5]];portConstraint=eastwest;top=0;left=0;right=0;bottom=0;html=1;" vertex="1" parent="u6JI1k4PTeRpNMcWvp9j-55">
          <mxGeometry y="240" width="180" height="30" as="geometry" />
        </mxCell>
        <mxCell id="u6JI1k4PTeRpNMcWvp9j-78" value="" style="shape=partialRectangle;connectable=0;fillColor=none;top=0;left=0;bottom=0;right=0;editable=1;overflow=hidden;html=1;whiteSpace=wrap;" vertex="1" parent="u6JI1k4PTeRpNMcWvp9j-77">
          <mxGeometry width="60" height="30" as="geometry">
            <mxRectangle width="60" height="30" as="alternateBounds" />
          </mxGeometry>
        </mxCell>
        <mxCell id="u6JI1k4PTeRpNMcWvp9j-79" value="valor" style="shape=partialRectangle;connectable=0;fillColor=none;top=0;left=0;bottom=0;right=0;align=left;spacingLeft=6;overflow=hidden;html=1;whiteSpace=wrap;" vertex="1" parent="u6JI1k4PTeRpNMcWvp9j-77">
          <mxGeometry x="60" width="120" height="30" as="geometry">
            <mxRectangle width="120" height="30" as="alternateBounds" />
          </mxGeometry>
        </mxCell>
        <mxCell id="u6JI1k4PTeRpNMcWvp9j-80" value="" style="shape=tableRow;horizontal=0;startSize=0;swimlaneHead=0;swimlaneBody=0;fillColor=none;collapsible=0;dropTarget=0;points=[[0,0.5],[1,0.5]];portConstraint=eastwest;top=0;left=0;right=0;bottom=0;html=1;" vertex="1" parent="u6JI1k4PTeRpNMcWvp9j-55">
          <mxGeometry y="270" width="180" height="30" as="geometry" />
        </mxCell>
        <mxCell id="u6JI1k4PTeRpNMcWvp9j-81" value="" style="shape=partialRectangle;connectable=0;fillColor=none;top=0;left=0;bottom=0;right=0;editable=1;overflow=hidden;html=1;whiteSpace=wrap;" vertex="1" parent="u6JI1k4PTeRpNMcWvp9j-80">
          <mxGeometry width="60" height="30" as="geometry">
            <mxRectangle width="60" height="30" as="alternateBounds" />
          </mxGeometry>
        </mxCell>
        <mxCell id="u6JI1k4PTeRpNMcWvp9j-82" value="autor" style="shape=partialRectangle;connectable=0;fillColor=none;top=0;left=0;bottom=0;right=0;align=left;spacingLeft=6;overflow=hidden;html=1;whiteSpace=wrap;" vertex="1" parent="u6JI1k4PTeRpNMcWvp9j-80">
          <mxGeometry x="60" width="120" height="30" as="geometry">
            <mxRectangle width="120" height="30" as="alternateBounds" />
          </mxGeometry>
        </mxCell>
        <mxCell id="u6JI1k4PTeRpNMcWvp9j-83" value="INVENTARIO" style="shape=table;startSize=30;container=1;collapsible=1;childLayout=tableLayout;fixedRows=1;rowLines=0;fontStyle=1;align=center;resizeLast=1;html=1;whiteSpace=wrap;" vertex="1" parent="1">
          <mxGeometry x="-269" y="224" width="180" height="120" as="geometry" />
        </mxCell>
        <mxCell id="u6JI1k4PTeRpNMcWvp9j-84" value="" style="shape=tableRow;horizontal=0;startSize=0;swimlaneHead=0;swimlaneBody=0;fillColor=none;collapsible=0;dropTarget=0;points=[[0,0.5],[1,0.5]];portConstraint=eastwest;top=0;left=0;right=0;bottom=0;html=1;" vertex="1" parent="u6JI1k4PTeRpNMcWvp9j-83">
          <mxGeometry y="30" width="180" height="30" as="geometry" />
        </mxCell>
        <mxCell id="u6JI1k4PTeRpNMcWvp9j-85" value="PK,FK" style="shape=partialRectangle;connectable=0;fillColor=none;top=0;left=0;bottom=0;right=0;fontStyle=1;overflow=hidden;html=1;whiteSpace=wrap;" vertex="1" parent="u6JI1k4PTeRpNMcWvp9j-84">
          <mxGeometry width="60" height="30" as="geometry">
            <mxRectangle width="60" height="30" as="alternateBounds" />
          </mxGeometry>
        </mxCell>
        <mxCell id="u6JI1k4PTeRpNMcWvp9j-86" value="cod_libro" style="shape=partialRectangle;connectable=0;fillColor=none;top=0;left=0;bottom=0;right=0;align=left;spacingLeft=6;fontStyle=5;overflow=hidden;html=1;whiteSpace=wrap;" vertex="1" parent="u6JI1k4PTeRpNMcWvp9j-84">
          <mxGeometry x="60" width="120" height="30" as="geometry">
            <mxRectangle width="120" height="30" as="alternateBounds" />
          </mxGeometry>
        </mxCell>
        <mxCell id="u6JI1k4PTeRpNMcWvp9j-87" value="" style="shape=tableRow;horizontal=0;startSize=0;swimlaneHead=0;swimlaneBody=0;fillColor=none;collapsible=0;dropTarget=0;points=[[0,0.5],[1,0.5]];portConstraint=eastwest;top=0;left=0;right=0;bottom=1;html=1;" vertex="1" parent="u6JI1k4PTeRpNMcWvp9j-83">
          <mxGeometry y="60" width="180" height="30" as="geometry" />
        </mxCell>
        <mxCell id="u6JI1k4PTeRpNMcWvp9j-88" value="PK,FK" style="shape=partialRectangle;connectable=0;fillColor=none;top=0;left=0;bottom=0;right=0;fontStyle=1;overflow=hidden;html=1;whiteSpace=wrap;" vertex="1" parent="u6JI1k4PTeRpNMcWvp9j-87">
          <mxGeometry width="60" height="30" as="geometry">
            <mxRectangle width="60" height="30" as="alternateBounds" />
          </mxGeometry>
        </mxCell>
        <mxCell id="u6JI1k4PTeRpNMcWvp9j-89" value="cod_editorial" style="shape=partialRectangle;connectable=0;fillColor=none;top=0;left=0;bottom=0;right=0;align=left;spacingLeft=6;fontStyle=5;overflow=hidden;html=1;whiteSpace=wrap;" vertex="1" parent="u6JI1k4PTeRpNMcWvp9j-87">
          <mxGeometry x="60" width="120" height="30" as="geometry">
            <mxRectangle width="120" height="30" as="alternateBounds" />
          </mxGeometry>
        </mxCell>
        <mxCell id="u6JI1k4PTeRpNMcWvp9j-90" value="" style="shape=tableRow;horizontal=0;startSize=0;swimlaneHead=0;swimlaneBody=0;fillColor=none;collapsible=0;dropTarget=0;points=[[0,0.5],[1,0.5]];portConstraint=eastwest;top=0;left=0;right=0;bottom=0;html=1;" vertex="1" parent="u6JI1k4PTeRpNMcWvp9j-83">
          <mxGeometry y="90" width="180" height="30" as="geometry" />
        </mxCell>
        <mxCell id="u6JI1k4PTeRpNMcWvp9j-91" value="" style="shape=partialRectangle;connectable=0;fillColor=none;top=0;left=0;bottom=0;right=0;editable=1;overflow=hidden;html=1;whiteSpace=wrap;" vertex="1" parent="u6JI1k4PTeRpNMcWvp9j-90">
          <mxGeometry width="60" height="30" as="geometry">
            <mxRectangle width="60" height="30" as="alternateBounds" />
          </mxGeometry>
        </mxCell>
        <mxCell id="u6JI1k4PTeRpNMcWvp9j-92" value="cantidad" style="shape=partialRectangle;connectable=0;fillColor=none;top=0;left=0;bottom=0;right=0;align=left;spacingLeft=6;overflow=hidden;html=1;whiteSpace=wrap;" vertex="1" parent="u6JI1k4PTeRpNMcWvp9j-90">
          <mxGeometry x="60" width="120" height="30" as="geometry">
            <mxRectangle width="120" height="30" as="alternateBounds" />
          </mxGeometry>
        </mxCell>
        <mxCell id="u6JI1k4PTeRpNMcWvp9j-99" value="ITEMS" style="shape=table;startSize=30;container=1;collapsible=1;childLayout=tableLayout;fixedRows=1;rowLines=0;fontStyle=1;align=center;resizeLast=1;html=1;whiteSpace=wrap;" vertex="1" parent="1">
          <mxGeometry x="311" y="-32" width="180" height="150" as="geometry" />
        </mxCell>
        <mxCell id="u6JI1k4PTeRpNMcWvp9j-100" value="" style="shape=tableRow;horizontal=0;startSize=0;swimlaneHead=0;swimlaneBody=0;fillColor=none;collapsible=0;dropTarget=0;points=[[0,0.5],[1,0.5]];portConstraint=eastwest;top=0;left=0;right=0;bottom=0;html=1;" vertex="1" parent="u6JI1k4PTeRpNMcWvp9j-99">
          <mxGeometry y="30" width="180" height="30" as="geometry" />
        </mxCell>
        <mxCell id="u6JI1k4PTeRpNMcWvp9j-101" value="PK,FK1" style="shape=partialRectangle;connectable=0;fillColor=none;top=0;left=0;bottom=0;right=0;fontStyle=1;overflow=hidden;html=1;whiteSpace=wrap;" vertex="1" parent="u6JI1k4PTeRpNMcWvp9j-100">
          <mxGeometry width="60" height="30" as="geometry">
            <mxRectangle width="60" height="30" as="alternateBounds" />
          </mxGeometry>
        </mxCell>
        <mxCell id="u6JI1k4PTeRpNMcWvp9j-102" value="cod_pedido" style="shape=partialRectangle;connectable=0;fillColor=none;top=0;left=0;bottom=0;right=0;align=left;spacingLeft=6;fontStyle=5;overflow=hidden;html=1;whiteSpace=wrap;" vertex="1" parent="u6JI1k4PTeRpNMcWvp9j-100">
          <mxGeometry x="60" width="120" height="30" as="geometry">
            <mxRectangle width="120" height="30" as="alternateBounds" />
          </mxGeometry>
        </mxCell>
        <mxCell id="u6JI1k4PTeRpNMcWvp9j-103" value="" style="shape=tableRow;horizontal=0;startSize=0;swimlaneHead=0;swimlaneBody=0;fillColor=none;collapsible=0;dropTarget=0;points=[[0,0.5],[1,0.5]];portConstraint=eastwest;top=0;left=0;right=0;bottom=1;html=1;" vertex="1" parent="u6JI1k4PTeRpNMcWvp9j-99">
          <mxGeometry y="60" width="180" height="30" as="geometry" />
        </mxCell>
        <mxCell id="u6JI1k4PTeRpNMcWvp9j-104" value="PK,FK2" style="shape=partialRectangle;connectable=0;fillColor=none;top=0;left=0;bottom=0;right=0;fontStyle=1;overflow=hidden;html=1;whiteSpace=wrap;" vertex="1" parent="u6JI1k4PTeRpNMcWvp9j-103">
          <mxGeometry width="60" height="30" as="geometry">
            <mxRectangle width="60" height="30" as="alternateBounds" />
          </mxGeometry>
        </mxCell>
        <mxCell id="u6JI1k4PTeRpNMcWvp9j-105" value="cod_libro" style="shape=partialRectangle;connectable=0;fillColor=none;top=0;left=0;bottom=0;right=0;align=left;spacingLeft=6;fontStyle=5;overflow=hidden;html=1;whiteSpace=wrap;" vertex="1" parent="u6JI1k4PTeRpNMcWvp9j-103">
          <mxGeometry x="60" width="120" height="30" as="geometry">
            <mxRectangle width="120" height="30" as="alternateBounds" />
          </mxGeometry>
        </mxCell>
        <mxCell id="u6JI1k4PTeRpNMcWvp9j-106" value="" style="shape=tableRow;horizontal=0;startSize=0;swimlaneHead=0;swimlaneBody=0;fillColor=none;collapsible=0;dropTarget=0;points=[[0,0.5],[1,0.5]];portConstraint=eastwest;top=0;left=0;right=0;bottom=0;html=1;" vertex="1" parent="u6JI1k4PTeRpNMcWvp9j-99">
          <mxGeometry y="90" width="180" height="30" as="geometry" />
        </mxCell>
        <mxCell id="u6JI1k4PTeRpNMcWvp9j-107" value="" style="shape=partialRectangle;connectable=0;fillColor=none;top=0;left=0;bottom=0;right=0;editable=1;overflow=hidden;html=1;whiteSpace=wrap;" vertex="1" parent="u6JI1k4PTeRpNMcWvp9j-106">
          <mxGeometry width="60" height="30" as="geometry">
            <mxRectangle width="60" height="30" as="alternateBounds" />
          </mxGeometry>
        </mxCell>
        <mxCell id="u6JI1k4PTeRpNMcWvp9j-108" value="cantidad" style="shape=partialRectangle;connectable=0;fillColor=none;top=0;left=0;bottom=0;right=0;align=left;spacingLeft=6;overflow=hidden;html=1;whiteSpace=wrap;" vertex="1" parent="u6JI1k4PTeRpNMcWvp9j-106">
          <mxGeometry x="60" width="120" height="30" as="geometry">
            <mxRectangle width="120" height="30" as="alternateBounds" />
          </mxGeometry>
        </mxCell>
        <mxCell id="u6JI1k4PTeRpNMcWvp9j-109" value="" style="shape=tableRow;horizontal=0;startSize=0;swimlaneHead=0;swimlaneBody=0;fillColor=none;collapsible=0;dropTarget=0;points=[[0,0.5],[1,0.5]];portConstraint=eastwest;top=0;left=0;right=0;bottom=0;html=1;" vertex="1" parent="u6JI1k4PTeRpNMcWvp9j-99">
          <mxGeometry y="120" width="180" height="30" as="geometry" />
        </mxCell>
        <mxCell id="u6JI1k4PTeRpNMcWvp9j-110" value="" style="shape=partialRectangle;connectable=0;fillColor=none;top=0;left=0;bottom=0;right=0;editable=1;overflow=hidden;html=1;whiteSpace=wrap;" vertex="1" parent="u6JI1k4PTeRpNMcWvp9j-109">
          <mxGeometry width="60" height="30" as="geometry">
            <mxRectangle width="60" height="30" as="alternateBounds" />
          </mxGeometry>
        </mxCell>
        <mxCell id="u6JI1k4PTeRpNMcWvp9j-111" value="valor" style="shape=partialRectangle;connectable=0;fillColor=none;top=0;left=0;bottom=0;right=0;align=left;spacingLeft=6;overflow=hidden;html=1;whiteSpace=wrap;" vertex="1" parent="u6JI1k4PTeRpNMcWvp9j-109">
          <mxGeometry x="60" width="120" height="30" as="geometry">
            <mxRectangle width="120" height="30" as="alternateBounds" />
          </mxGeometry>
        </mxCell>
        <mxCell id="Y_Uc7HVodTmFu6n4pp_H-1" value="PN" style="shape=table;startSize=30;container=1;collapsible=1;childLayout=tableLayout;fixedRows=1;rowLines=0;fontStyle=1;align=center;resizeLast=1;html=1;" vertex="1" parent="1">
          <mxGeometry x="-269" y="6" width="180" height="120" as="geometry" />
        </mxCell>
        <mxCell id="Y_Uc7HVodTmFu6n4pp_H-2" value="" style="shape=tableRow;horizontal=0;startSize=0;swimlaneHead=0;swimlaneBody=0;fillColor=none;collapsible=0;dropTarget=0;points=[[0,0.5],[1,0.5]];portConstraint=eastwest;top=0;left=0;right=0;bottom=1;" vertex="1" parent="Y_Uc7HVodTmFu6n4pp_H-1">
          <mxGeometry y="30" width="180" height="30" as="geometry" />
        </mxCell>
        <mxCell id="Y_Uc7HVodTmFu6n4pp_H-3" value="PK,FK" style="shape=partialRectangle;connectable=0;fillColor=none;top=0;left=0;bottom=0;right=0;fontStyle=1;overflow=hidden;whiteSpace=wrap;html=1;" vertex="1" parent="Y_Uc7HVodTmFu6n4pp_H-2">
          <mxGeometry width="48.75" height="30" as="geometry">
            <mxRectangle width="48.75" height="30" as="alternateBounds" />
          </mxGeometry>
        </mxCell>
        <mxCell id="Y_Uc7HVodTmFu6n4pp_H-4" value="cod_clientre" style="shape=partialRectangle;connectable=0;fillColor=none;top=0;left=0;bottom=0;right=0;align=left;spacingLeft=6;fontStyle=5;overflow=hidden;whiteSpace=wrap;html=1;" vertex="1" parent="Y_Uc7HVodTmFu6n4pp_H-2">
          <mxGeometry x="48.75" width="131.25" height="30" as="geometry">
            <mxRectangle width="131.25" height="30" as="alternateBounds" />
          </mxGeometry>
        </mxCell>
        <mxCell id="Y_Uc7HVodTmFu6n4pp_H-5" value="" style="shape=tableRow;horizontal=0;startSize=0;swimlaneHead=0;swimlaneBody=0;fillColor=none;collapsible=0;dropTarget=0;points=[[0,0.5],[1,0.5]];portConstraint=eastwest;top=0;left=0;right=0;bottom=0;" vertex="1" parent="Y_Uc7HVodTmFu6n4pp_H-1">
          <mxGeometry y="60" width="180" height="30" as="geometry" />
        </mxCell>
        <mxCell id="Y_Uc7HVodTmFu6n4pp_H-6" value="" style="shape=partialRectangle;connectable=0;fillColor=none;top=0;left=0;bottom=0;right=0;editable=1;overflow=hidden;whiteSpace=wrap;html=1;" vertex="1" parent="Y_Uc7HVodTmFu6n4pp_H-5">
          <mxGeometry width="48.75" height="30" as="geometry">
            <mxRectangle width="48.75" height="30" as="alternateBounds" />
          </mxGeometry>
        </mxCell>
        <mxCell id="Y_Uc7HVodTmFu6n4pp_H-7" value="dni" style="shape=partialRectangle;connectable=0;fillColor=none;top=0;left=0;bottom=0;right=0;align=left;spacingLeft=6;overflow=hidden;whiteSpace=wrap;html=1;" vertex="1" parent="Y_Uc7HVodTmFu6n4pp_H-5">
          <mxGeometry x="48.75" width="131.25" height="30" as="geometry">
            <mxRectangle width="131.25" height="30" as="alternateBounds" />
          </mxGeometry>
        </mxCell>
        <mxCell id="Y_Uc7HVodTmFu6n4pp_H-8" value="" style="shape=tableRow;horizontal=0;startSize=0;swimlaneHead=0;swimlaneBody=0;fillColor=none;collapsible=0;dropTarget=0;points=[[0,0.5],[1,0.5]];portConstraint=eastwest;top=0;left=0;right=0;bottom=0;" vertex="1" parent="Y_Uc7HVodTmFu6n4pp_H-1">
          <mxGeometry y="90" width="180" height="30" as="geometry" />
        </mxCell>
        <mxCell id="Y_Uc7HVodTmFu6n4pp_H-9" value="" style="shape=partialRectangle;connectable=0;fillColor=none;top=0;left=0;bottom=0;right=0;editable=1;overflow=hidden;whiteSpace=wrap;html=1;" vertex="1" parent="Y_Uc7HVodTmFu6n4pp_H-8">
          <mxGeometry width="48.75" height="30" as="geometry">
            <mxRectangle width="48.75" height="30" as="alternateBounds" />
          </mxGeometry>
        </mxCell>
        <mxCell id="Y_Uc7HVodTmFu6n4pp_H-10" value="rut" style="shape=partialRectangle;connectable=0;fillColor=none;top=0;left=0;bottom=0;right=0;align=left;spacingLeft=6;overflow=hidden;whiteSpace=wrap;html=1;" vertex="1" parent="Y_Uc7HVodTmFu6n4pp_H-8">
          <mxGeometry x="48.75" width="131.25" height="30" as="geometry">
            <mxRectangle width="131.25" height="30" as="alternateBounds" />
          </mxGeometry>
        </mxCell>
        <mxCell id="Y_Uc7HVodTmFu6n4pp_H-14" value="PJ" style="shape=table;startSize=30;container=1;collapsible=1;childLayout=tableLayout;fixedRows=1;rowLines=0;fontStyle=1;align=center;resizeLast=1;html=1;" vertex="1" parent="1">
          <mxGeometry x="-269" y="-149" width="180" height="120" as="geometry" />
        </mxCell>
        <mxCell id="Y_Uc7HVodTmFu6n4pp_H-15" value="" style="shape=tableRow;horizontal=0;startSize=0;swimlaneHead=0;swimlaneBody=0;fillColor=none;collapsible=0;dropTarget=0;points=[[0,0.5],[1,0.5]];portConstraint=eastwest;top=0;left=0;right=0;bottom=1;" vertex="1" parent="Y_Uc7HVodTmFu6n4pp_H-14">
          <mxGeometry y="30" width="180" height="30" as="geometry" />
        </mxCell>
        <mxCell id="Y_Uc7HVodTmFu6n4pp_H-16" value="PK,FK" style="shape=partialRectangle;connectable=0;fillColor=none;top=0;left=0;bottom=0;right=0;fontStyle=1;overflow=hidden;whiteSpace=wrap;html=1;" vertex="1" parent="Y_Uc7HVodTmFu6n4pp_H-15">
          <mxGeometry width="52.75" height="30" as="geometry">
            <mxRectangle width="52.75" height="30" as="alternateBounds" />
          </mxGeometry>
        </mxCell>
        <mxCell id="Y_Uc7HVodTmFu6n4pp_H-17" value="cod_cliente" style="shape=partialRectangle;connectable=0;fillColor=none;top=0;left=0;bottom=0;right=0;align=left;spacingLeft=6;fontStyle=5;overflow=hidden;whiteSpace=wrap;html=1;" vertex="1" parent="Y_Uc7HVodTmFu6n4pp_H-15">
          <mxGeometry x="52.75" width="127.25" height="30" as="geometry">
            <mxRectangle width="127.25" height="30" as="alternateBounds" />
          </mxGeometry>
        </mxCell>
        <mxCell id="Y_Uc7HVodTmFu6n4pp_H-18" value="" style="shape=tableRow;horizontal=0;startSize=0;swimlaneHead=0;swimlaneBody=0;fillColor=none;collapsible=0;dropTarget=0;points=[[0,0.5],[1,0.5]];portConstraint=eastwest;top=0;left=0;right=0;bottom=0;" vertex="1" parent="Y_Uc7HVodTmFu6n4pp_H-14">
          <mxGeometry y="60" width="180" height="30" as="geometry" />
        </mxCell>
        <mxCell id="Y_Uc7HVodTmFu6n4pp_H-19" value="" style="shape=partialRectangle;connectable=0;fillColor=none;top=0;left=0;bottom=0;right=0;editable=1;overflow=hidden;whiteSpace=wrap;html=1;" vertex="1" parent="Y_Uc7HVodTmFu6n4pp_H-18">
          <mxGeometry width="52.75" height="30" as="geometry">
            <mxRectangle width="52.75" height="30" as="alternateBounds" />
          </mxGeometry>
        </mxCell>
        <mxCell id="Y_Uc7HVodTmFu6n4pp_H-20" value="nit" style="shape=partialRectangle;connectable=0;fillColor=none;top=0;left=0;bottom=0;right=0;align=left;spacingLeft=6;overflow=hidden;whiteSpace=wrap;html=1;" vertex="1" parent="Y_Uc7HVodTmFu6n4pp_H-18">
          <mxGeometry x="52.75" width="127.25" height="30" as="geometry">
            <mxRectangle width="127.25" height="30" as="alternateBounds" />
          </mxGeometry>
        </mxCell>
        <mxCell id="Y_Uc7HVodTmFu6n4pp_H-21" value="" style="shape=tableRow;horizontal=0;startSize=0;swimlaneHead=0;swimlaneBody=0;fillColor=none;collapsible=0;dropTarget=0;points=[[0,0.5],[1,0.5]];portConstraint=eastwest;top=0;left=0;right=0;bottom=0;" vertex="1" parent="Y_Uc7HVodTmFu6n4pp_H-14">
          <mxGeometry y="90" width="180" height="30" as="geometry" />
        </mxCell>
        <mxCell id="Y_Uc7HVodTmFu6n4pp_H-22" value="" style="shape=partialRectangle;connectable=0;fillColor=none;top=0;left=0;bottom=0;right=0;editable=1;overflow=hidden;whiteSpace=wrap;html=1;" vertex="1" parent="Y_Uc7HVodTmFu6n4pp_H-21">
          <mxGeometry width="52.75" height="30" as="geometry">
            <mxRectangle width="52.75" height="30" as="alternateBounds" />
          </mxGeometry>
        </mxCell>
        <mxCell id="Y_Uc7HVodTmFu6n4pp_H-23" value="rues" style="shape=partialRectangle;connectable=0;fillColor=none;top=0;left=0;bottom=0;right=0;align=left;spacingLeft=6;overflow=hidden;whiteSpace=wrap;html=1;" vertex="1" parent="Y_Uc7HVodTmFu6n4pp_H-21">
          <mxGeometry x="52.75" width="127.25" height="30" as="geometry">
            <mxRectangle width="127.25" height="30" as="alternateBounds" />
          </mxGeometry>
        </mxCell>
        <mxCell id="SsLDp9xBKbJSAmOkXXGd-17" style="rounded=0;orthogonalLoop=1;jettySize=auto;html=1;entryX=1;entryY=0.5;entryDx=0;entryDy=0;fontSize=12;startSize=8;endSize=8;endArrow=none;startFill=0;" edge="1" parent="1" source="NIWuNaLcewkqexgybNBD-1" target="Y_Uc7HVodTmFu6n4pp_H-15">
          <mxGeometry relative="1" as="geometry" />
        </mxCell>
        <mxCell id="NIWuNaLcewkqexgybNBD-1" value="CLIENTE" style="shape=table;startSize=30;container=1;collapsible=1;childLayout=tableLayout;fixedRows=1;rowLines=0;fontStyle=1;align=center;resizeLast=1;html=1;" vertex="1" parent="1">
          <mxGeometry x="17" y="-149" width="180" height="267" as="geometry" />
        </mxCell>
        <mxCell id="NIWuNaLcewkqexgybNBD-2" value="" style="shape=tableRow;horizontal=0;startSize=0;swimlaneHead=0;swimlaneBody=0;fillColor=none;collapsible=0;dropTarget=0;points=[[0,0.5],[1,0.5]];portConstraint=eastwest;top=0;left=0;right=0;bottom=1;" vertex="1" parent="NIWuNaLcewkqexgybNBD-1">
          <mxGeometry y="30" width="180" height="30" as="geometry" />
        </mxCell>
        <mxCell id="NIWuNaLcewkqexgybNBD-3" value="PK" style="shape=partialRectangle;connectable=0;fillColor=none;top=0;left=0;bottom=0;right=0;fontStyle=1;overflow=hidden;whiteSpace=wrap;html=1;" vertex="1" parent="NIWuNaLcewkqexgybNBD-2">
          <mxGeometry width="30" height="30" as="geometry">
            <mxRectangle width="30" height="30" as="alternateBounds" />
          </mxGeometry>
        </mxCell>
        <mxCell id="NIWuNaLcewkqexgybNBD-4" value="cod_cliente" style="shape=partialRectangle;connectable=0;fillColor=none;top=0;left=0;bottom=0;right=0;align=left;spacingLeft=6;fontStyle=5;overflow=hidden;whiteSpace=wrap;html=1;" vertex="1" parent="NIWuNaLcewkqexgybNBD-2">
          <mxGeometry x="30" width="150" height="30" as="geometry">
            <mxRectangle width="150" height="30" as="alternateBounds" />
          </mxGeometry>
        </mxCell>
        <mxCell id="NIWuNaLcewkqexgybNBD-5" value="" style="shape=tableRow;horizontal=0;startSize=0;swimlaneHead=0;swimlaneBody=0;fillColor=none;collapsible=0;dropTarget=0;points=[[0,0.5],[1,0.5]];portConstraint=eastwest;top=0;left=0;right=0;bottom=0;" vertex="1" parent="NIWuNaLcewkqexgybNBD-1">
          <mxGeometry y="60" width="180" height="30" as="geometry" />
        </mxCell>
        <mxCell id="NIWuNaLcewkqexgybNBD-6" value="" style="shape=partialRectangle;connectable=0;fillColor=none;top=0;left=0;bottom=0;right=0;editable=1;overflow=hidden;whiteSpace=wrap;html=1;" vertex="1" parent="NIWuNaLcewkqexgybNBD-5">
          <mxGeometry width="30" height="30" as="geometry">
            <mxRectangle width="30" height="30" as="alternateBounds" />
          </mxGeometry>
        </mxCell>
        <mxCell id="NIWuNaLcewkqexgybNBD-7" value="nombre" style="shape=partialRectangle;connectable=0;fillColor=none;top=0;left=0;bottom=0;right=0;align=left;spacingLeft=6;overflow=hidden;whiteSpace=wrap;html=1;" vertex="1" parent="NIWuNaLcewkqexgybNBD-5">
          <mxGeometry x="30" width="150" height="30" as="geometry">
            <mxRectangle width="150" height="30" as="alternateBounds" />
          </mxGeometry>
        </mxCell>
        <mxCell id="NIWuNaLcewkqexgybNBD-8" value="" style="shape=tableRow;horizontal=0;startSize=0;swimlaneHead=0;swimlaneBody=0;fillColor=none;collapsible=0;dropTarget=0;points=[[0,0.5],[1,0.5]];portConstraint=eastwest;top=0;left=0;right=0;bottom=0;" vertex="1" parent="NIWuNaLcewkqexgybNBD-1">
          <mxGeometry y="90" width="180" height="27" as="geometry" />
        </mxCell>
        <mxCell id="NIWuNaLcewkqexgybNBD-9" value="" style="shape=partialRectangle;connectable=0;fillColor=none;top=0;left=0;bottom=0;right=0;editable=1;overflow=hidden;whiteSpace=wrap;html=1;" vertex="1" parent="NIWuNaLcewkqexgybNBD-8">
          <mxGeometry width="30" height="27" as="geometry">
            <mxRectangle width="30" height="27" as="alternateBounds" />
          </mxGeometry>
        </mxCell>
        <mxCell id="NIWuNaLcewkqexgybNBD-10" value="telÃ©fono" style="shape=partialRectangle;connectable=0;fillColor=none;top=0;left=0;bottom=0;right=0;align=left;spacingLeft=6;overflow=hidden;whiteSpace=wrap;html=1;" vertex="1" parent="NIWuNaLcewkqexgybNBD-8">
          <mxGeometry x="30" width="150" height="27" as="geometry">
            <mxRectangle width="150" height="27" as="alternateBounds" />
          </mxGeometry>
        </mxCell>
        <mxCell id="NIWuNaLcewkqexgybNBD-11" value="" style="shape=tableRow;horizontal=0;startSize=0;swimlaneHead=0;swimlaneBody=0;fillColor=none;collapsible=0;dropTarget=0;points=[[0,0.5],[1,0.5]];portConstraint=eastwest;top=0;left=0;right=0;bottom=0;" vertex="1" parent="NIWuNaLcewkqexgybNBD-1">
          <mxGeometry y="117" width="180" height="30" as="geometry" />
        </mxCell>
        <mxCell id="NIWuNaLcewkqexgybNBD-12" value="" style="shape=partialRectangle;connectable=0;fillColor=none;top=0;left=0;bottom=0;right=0;editable=1;overflow=hidden;whiteSpace=wrap;html=1;" vertex="1" parent="NIWuNaLcewkqexgybNBD-11">
          <mxGeometry width="30" height="30" as="geometry">
            <mxRectangle width="30" height="30" as="alternateBounds" />
          </mxGeometry>
        </mxCell>
        <mxCell id="NIWuNaLcewkqexgybNBD-13" value="e-mail" style="shape=partialRectangle;connectable=0;fillColor=none;top=0;left=0;bottom=0;right=0;align=left;spacingLeft=6;overflow=hidden;whiteSpace=wrap;html=1;" vertex="1" parent="NIWuNaLcewkqexgybNBD-11">
          <mxGeometry x="30" width="150" height="30" as="geometry">
            <mxRectangle width="150" height="30" as="alternateBounds" />
          </mxGeometry>
        </mxCell>
        <mxCell id="u6JI1k4PTeRpNMcWvp9j-4" value="" style="shape=tableRow;horizontal=0;startSize=0;swimlaneHead=0;swimlaneBody=0;fillColor=none;collapsible=0;dropTarget=0;points=[[0,0.5],[1,0.5]];portConstraint=eastwest;top=0;left=0;right=0;bottom=0;" vertex="1" parent="NIWuNaLcewkqexgybNBD-1">
          <mxGeometry y="147" width="180" height="30" as="geometry" />
        </mxCell>
        <mxCell id="u6JI1k4PTeRpNMcWvp9j-5" value="" style="shape=partialRectangle;connectable=0;fillColor=none;top=0;left=0;bottom=0;right=0;editable=1;overflow=hidden;whiteSpace=wrap;html=1;" vertex="1" parent="u6JI1k4PTeRpNMcWvp9j-4">
          <mxGeometry width="30" height="30" as="geometry">
            <mxRectangle width="30" height="30" as="alternateBounds" />
          </mxGeometry>
        </mxCell>
        <mxCell id="u6JI1k4PTeRpNMcWvp9j-6" value="calle" style="shape=partialRectangle;connectable=0;fillColor=none;top=0;left=0;bottom=0;right=0;align=left;spacingLeft=6;overflow=hidden;whiteSpace=wrap;html=1;" vertex="1" parent="u6JI1k4PTeRpNMcWvp9j-4">
          <mxGeometry x="30" width="150" height="30" as="geometry">
            <mxRectangle width="150" height="30" as="alternateBounds" />
          </mxGeometry>
        </mxCell>
        <mxCell id="u6JI1k4PTeRpNMcWvp9j-7" value="" style="shape=tableRow;horizontal=0;startSize=0;swimlaneHead=0;swimlaneBody=0;fillColor=none;collapsible=0;dropTarget=0;points=[[0,0.5],[1,0.5]];portConstraint=eastwest;top=0;left=0;right=0;bottom=0;" vertex="1" parent="NIWuNaLcewkqexgybNBD-1">
          <mxGeometry y="177" width="180" height="30" as="geometry" />
        </mxCell>
        <mxCell id="u6JI1k4PTeRpNMcWvp9j-8" value="" style="shape=partialRectangle;connectable=0;fillColor=none;top=0;left=0;bottom=0;right=0;editable=1;overflow=hidden;whiteSpace=wrap;html=1;" vertex="1" parent="u6JI1k4PTeRpNMcWvp9j-7">
          <mxGeometry width="30" height="30" as="geometry">
            <mxRectangle width="30" height="30" as="alternateBounds" />
          </mxGeometry>
        </mxCell>
        <mxCell id="u6JI1k4PTeRpNMcWvp9j-9" value="barrio" style="shape=partialRectangle;connectable=0;fillColor=none;top=0;left=0;bottom=0;right=0;align=left;spacingLeft=6;overflow=hidden;whiteSpace=wrap;html=1;" vertex="1" parent="u6JI1k4PTeRpNMcWvp9j-7">
          <mxGeometry x="30" width="150" height="30" as="geometry">
            <mxRectangle width="150" height="30" as="alternateBounds" />
          </mxGeometry>
        </mxCell>
        <mxCell id="u6JI1k4PTeRpNMcWvp9j-10" value="" style="shape=tableRow;horizontal=0;startSize=0;swimlaneHead=0;swimlaneBody=0;fillColor=none;collapsible=0;dropTarget=0;points=[[0,0.5],[1,0.5]];portConstraint=eastwest;top=0;left=0;right=0;bottom=0;" vertex="1" parent="NIWuNaLcewkqexgybNBD-1">
          <mxGeometry y="207" width="180" height="30" as="geometry" />
        </mxCell>
        <mxCell id="u6JI1k4PTeRpNMcWvp9j-11" value="" style="shape=partialRectangle;connectable=0;fillColor=none;top=0;left=0;bottom=0;right=0;editable=1;overflow=hidden;whiteSpace=wrap;html=1;" vertex="1" parent="u6JI1k4PTeRpNMcWvp9j-10">
          <mxGeometry width="30" height="30" as="geometry">
            <mxRectangle width="30" height="30" as="alternateBounds" />
          </mxGeometry>
        </mxCell>
        <mxCell id="u6JI1k4PTeRpNMcWvp9j-12" value="ciudad" style="shape=partialRectangle;connectable=0;fillColor=none;top=0;left=0;bottom=0;right=0;align=left;spacingLeft=6;overflow=hidden;whiteSpace=wrap;html=1;" vertex="1" parent="u6JI1k4PTeRpNMcWvp9j-10">
          <mxGeometry x="30" width="150" height="30" as="geometry">
            <mxRectangle width="150" height="30" as="alternateBounds" />
          </mxGeometry>
        </mxCell>
        <mxCell id="u6JI1k4PTeRpNMcWvp9j-1" value="" style="shape=tableRow;horizontal=0;startSize=0;swimlaneHead=0;swimlaneBody=0;fillColor=none;collapsible=0;dropTarget=0;points=[[0,0.5],[1,0.5]];portConstraint=eastwest;top=0;left=0;right=0;bottom=0;" vertex="1" parent="NIWuNaLcewkqexgybNBD-1">
          <mxGeometry y="237" width="180" height="30" as="geometry" />
        </mxCell>
        <mxCell id="u6JI1k4PTeRpNMcWvp9j-2" value="" style="shape=partialRectangle;connectable=0;fillColor=none;top=0;left=0;bottom=0;right=0;editable=1;overflow=hidden;whiteSpace=wrap;html=1;" vertex="1" parent="u6JI1k4PTeRpNMcWvp9j-1">
          <mxGeometry width="30" height="30" as="geometry">
            <mxRectangle width="30" height="30" as="alternateBounds" />
          </mxGeometry>
        </mxCell>
        <mxCell id="u6JI1k4PTeRpNMcWvp9j-3" value="estado" style="shape=partialRectangle;connectable=0;fillColor=none;top=0;left=0;bottom=0;right=0;align=left;spacingLeft=6;overflow=hidden;whiteSpace=wrap;html=1;" vertex="1" parent="u6JI1k4PTeRpNMcWvp9j-1">
          <mxGeometry x="30" width="150" height="30" as="geometry">
            <mxRectangle width="150" height="30" as="alternateBounds" />
          </mxGeometry>
        </mxCell>
        <mxCell id="SsLDp9xBKbJSAmOkXXGd-2" style="edgeStyle=none;curved=1;rounded=0;orthogonalLoop=1;jettySize=auto;html=1;exitX=0.75;exitY=0;exitDx=0;exitDy=0;fontSize=12;startSize=8;endSize=8;" edge="1" parent="1" source="Y_Uc7HVodTmFu6n4pp_H-14" target="Y_Uc7HVodTmFu6n4pp_H-14">
          <mxGeometry relative="1" as="geometry" />
        </mxCell>
        <mxCell id="SsLDp9xBKbJSAmOkXXGd-3" value="Text" style="text;html=1;align=center;verticalAlign=middle;whiteSpace=wrap;rounded=0;" vertex="1" parent="1">
          <mxGeometry x="35" y="95" width="60" height="30" as="geometry" />
        </mxCell>
        <mxCell id="SsLDp9xBKbJSAmOkXXGd-4" value="(0,1)" style="text;html=1;align=center;verticalAlign=middle;resizable=0;points=[];autosize=1;strokeColor=none;fillColor=none;fontSize=16;" vertex="1" parent="1">
          <mxGeometry x="-93.5" y="-152.5" width="51" height="31" as="geometry" />
        </mxCell>
        <mxCell id="SsLDp9xBKbJSAmOkXXGd-5" value="(0,1)" style="text;html=1;align=center;verticalAlign=middle;resizable=0;points=[];autosize=1;strokeColor=none;fillColor=none;fontSize=16;" vertex="1" parent="1">
          <mxGeometry x="-89" y="4" width="51" height="31" as="geometry" />
        </mxCell>
        <mxCell id="SsLDp9xBKbJSAmOkXXGd-6" value="(1,1)" style="text;html=1;align=center;verticalAlign=middle;resizable=0;points=[];autosize=1;strokeColor=none;fillColor=none;fontSize=16;" vertex="1" parent="1">
          <mxGeometry x="-40" y="-117" width="51" height="31" as="geometry" />
        </mxCell>
        <mxCell id="SsLDp9xBKbJSAmOkXXGd-7" value="(0,N)" style="text;html=1;align=center;verticalAlign=middle;resizable=0;points=[];autosize=1;strokeColor=none;fillColor=none;fontSize=16;" vertex="1" parent="1">
          <mxGeometry x="257" y="-299" width="54" height="31" as="geometry" />
        </mxCell>
        <mxCell id="SsLDp9xBKbJSAmOkXXGd-8" value="(1,1)" style="text;html=1;align=center;verticalAlign=middle;resizable=0;points=[];autosize=1;strokeColor=none;fillColor=none;fontSize=16;" vertex="1" parent="1">
          <mxGeometry x="151" y="-180" width="51" height="31" as="geometry" />
        </mxCell>
        <mxCell id="SsLDp9xBKbJSAmOkXXGd-9" value="(1,1)" style="text;html=1;align=center;verticalAlign=middle;resizable=0;points=[];autosize=1;strokeColor=none;fillColor=none;fontSize=16;" vertex="1" parent="1">
          <mxGeometry x="420" y="-149" width="51" height="31" as="geometry" />
        </mxCell>
        <mxCell id="SsLDp9xBKbJSAmOkXXGd-10" value="(1,N)" style="text;html=1;align=center;verticalAlign=middle;resizable=0;points=[];autosize=1;strokeColor=none;fillColor=none;fontSize=16;" vertex="1" parent="1">
          <mxGeometry x="421" y="-63" width="54" height="31" as="geometry" />
        </mxCell>
        <mxCell id="SsLDp9xBKbJSAmOkXXGd-11" value="(1,1)" style="text;html=1;align=center;verticalAlign=middle;resizable=0;points=[];autosize=1;strokeColor=none;fillColor=none;fontSize=16;" vertex="1" parent="1">
          <mxGeometry x="173" y="184" width="51" height="31" as="geometry" />
        </mxCell>
        <mxCell id="SsLDp9xBKbJSAmOkXXGd-12" value="(1,N)" style="text;html=1;align=center;verticalAlign=middle;resizable=0;points=[];autosize=1;strokeColor=none;fillColor=none;fontSize=16;" vertex="1" parent="1">
          <mxGeometry x="424" y="118" width="54" height="31" as="geometry" />
        </mxCell>
        <mxCell id="SsLDp9xBKbJSAmOkXXGd-13" value="(0,1)" style="text;html=1;align=center;verticalAlign=middle;resizable=0;points=[];autosize=1;strokeColor=none;fillColor=none;fontSize=16;" vertex="1" parent="1">
          <mxGeometry x="-137" y="193" width="51" height="31" as="geometry" />
        </mxCell>
        <mxCell id="SsLDp9xBKbJSAmOkXXGd-14" value="(1,N)" style="text;html=1;align=center;verticalAlign=middle;resizable=0;points=[];autosize=1;strokeColor=none;fillColor=none;fontSize=16;" vertex="1" parent="1">
          <mxGeometry x="194" y="273" width="54" height="31" as="geometry" />
        </mxCell>
        <mxCell id="SsLDp9xBKbJSAmOkXXGd-15" value="(1,1)" style="text;html=1;align=center;verticalAlign=middle;resizable=0;points=[];autosize=1;strokeColor=none;fillColor=none;fontSize=16;" vertex="1" parent="1">
          <mxGeometry x="269" y="337" width="51" height="31" as="geometry" />
        </mxCell>
        <mxCell id="SsLDp9xBKbJSAmOkXXGd-18" style="edgeStyle=none;curved=1;rounded=0;orthogonalLoop=1;jettySize=auto;html=1;entryX=0.994;entryY=0.9;entryDx=0;entryDy=0;entryPerimeter=0;fontSize=12;startSize=8;endSize=8;exitX=0;exitY=0.5;exitDx=0;exitDy=0;endArrow=none;startFill=0;" edge="1" parent="1" source="NIWuNaLcewkqexgybNBD-11" target="Y_Uc7HVodTmFu6n4pp_H-2">
          <mxGeometry relative="1" as="geometry" />
        </mxCell>
        <mxCell id="SsLDp9xBKbJSAmOkXXGd-19" value="(1,1)" style="text;html=1;align=center;verticalAlign=middle;resizable=0;points=[];autosize=1;strokeColor=none;fillColor=none;fontSize=16;" vertex="1" parent="1">
          <mxGeometry x="-40" y="-42" width="51" height="31" as="geometry" />
        </mxCell>
        <mxCell id="SsLDp9xBKbJSAmOkXXGd-20" style="edgeStyle=none;curved=1;rounded=0;orthogonalLoop=1;jettySize=auto;html=1;entryX=0.006;entryY=0.2;entryDx=0;entryDy=0;entryPerimeter=0;fontSize=12;startSize=8;endSize=8;endArrow=none;startFill=0;" edge="1" parent="1" source="NIWuNaLcewkqexgybNBD-1" target="u6JI1k4PTeRpNMcWvp9j-43">
          <mxGeometry relative="1" as="geometry" />
        </mxCell>
        <mxCell id="SsLDp9xBKbJSAmOkXXGd-22" style="edgeStyle=none;curved=1;rounded=0;orthogonalLoop=1;jettySize=auto;html=1;entryX=1.006;entryY=-0.067;entryDx=0;entryDy=0;entryPerimeter=0;fontSize=12;startSize=8;endSize=8;endArrow=none;startFill=0;" edge="1" parent="1" source="u6JI1k4PTeRpNMcWvp9j-99" target="u6JI1k4PTeRpNMcWvp9j-56">
          <mxGeometry relative="1" as="geometry" />
        </mxCell>
        <mxCell id="SsLDp9xBKbJSAmOkXXGd-23" style="edgeStyle=none;curved=1;rounded=0;orthogonalLoop=1;jettySize=auto;html=1;entryX=0.994;entryY=0.175;entryDx=0;entryDy=0;entryPerimeter=0;fontSize=12;startSize=8;endSize=8;endArrow=none;startFill=0;" edge="1" parent="1" source="u6JI1k4PTeRpNMcWvp9j-55" target="u6JI1k4PTeRpNMcWvp9j-83">
          <mxGeometry relative="1" as="geometry" />
        </mxCell>
        <mxCell id="SsLDp9xBKbJSAmOkXXGd-24" style="edgeStyle=none;curved=1;rounded=0;orthogonalLoop=1;jettySize=auto;html=1;exitX=1;exitY=0.5;exitDx=0;exitDy=0;entryX=0;entryY=0.5;entryDx=0;entryDy=0;fontSize=12;startSize=8;endSize=8;endArrow=none;startFill=0;" edge="1" parent="1" source="u6JI1k4PTeRpNMcWvp9j-62" target="u6JI1k4PTeRpNMcWvp9j-17">
          <mxGeometry relative="1" as="geometry" />
        </mxCell>
      </root>
    </mxGraphModel>
  </diagram>
</mxfile>
